<?xml version="1.0" encoding="UTF-8" standalone="no"?>
<!-- Created with Inkscape (http://www.inkscape.org/) -->

<svg
   width="512"
   height="512"
   viewBox="0 0 512 512"
   version="1.1"
   id="svg1"
   inkscape:version="1.4 (e7c3feb100, 2024-10-09)"
   sodipodi:docname="logo.svg"
   xmlns:inkscape="http://www.inkscape.org/namespaces/inkscape"
   xmlns:sodipodi="http://sodipodi.sourceforge.net/DTD/sodipodi-0.dtd"
   xmlns="http://www.w3.org/2000/svg"
   xmlns:svg="http://www.w3.org/2000/svg">
  <sodipodi:namedview
     id="namedview1"
     pagecolor="#ffffff"
     bordercolor="#000000"
     borderopacity="0.25"
     inkscape:showpageshadow="2"
     inkscape:pageopacity="0.0"
     inkscape:pagecheckerboard="0"
     inkscape:deskcolor="#d1d1d1"
     inkscape:document-units="px"
     inkscape:zoom="0.79340469"
     inkscape:cx="197.25117"
     inkscape:cy="269.72364"
     inkscape:window-width="1906"
     inkscape:window-height="989"
     inkscape:window-x="0"
     inkscape:window-y="0"
     inkscape:window-maximized="1"
     inkscape:current-layer="layer1" />
  <defs
     id="defs1" />
  <g
     inkscape:label="Layer 1"
     inkscape:groupmode="layer"
     id="layer1">
    <path
       id="text1"
       style="font-size:450px;line-height:1.2;font-family:'Monaspace Radon';-inkscape-font-specification:'Monaspace Radon';text-align:end;word-spacing:0px;text-anchor:end;fill:#f5decc;stroke-width:5.00001;stroke-opacity:0.713725"
       d="m 165.0332,84.126953 c -22.5,0 -35.55156,17.323437 -54.22656,54.898437 -14.849995,29.475 -41.173437,91.35117 -62.773437,146.70117 -4.725,0.675 -9.451172,1.57461 -13.951172,2.47461 -13.725,2.475 -22.049218,10.35 -21.824219,21.375 0.450002,10.35 8.099219,18.67461 19.574219,18.22461 -10.35,27.9 -17.773828,50.4 -19.798828,60.75 -5.8499999,23.175 5.624219,37.80078 21.824219,37.80078 13.725,0 25.425781,-10.34961 25.425781,-27.22461 0,-5.85 -1.351562,-12.60078 -4.726562,-17.55078 5.4,-16.2 13.051562,-37.57461 21.601562,-60.97461 28.799997,-4.275 58.049607,-7.42617 86.849607,-9.45117 1.35,31.05 3.82539,58.5 7.65039,76.5 4.275,19.35 15.27601,27.54707 29.25,29.92578 48.81938,8.31024 103.16516,11.1011 152.53711,10.29688 11.24851,-0.18323 19.34922,-7.87422 21.82422,-21.82422 13.275,-69.975 11.58451,-198.9 15.85951,-271.125 l 71.54883,-4.94922 c 10.8,-0.675 18.90117,-9.45039 18.45117,-20.02539 -0.225,-11.475001 -10.8,-17.550001 -21.375,-19.125001 -20.475,-2.25 -59.62656,-4.500391 -85.72656,-6.525391 -1.74375,-0.16875 -3.35723,-0.211182 -4.84961,-0.138672 -10.44668,0.507569 -14.95039,6.636328 -16.52539,14.314453 l -68.05678,5.173831 c -52.58012,3.80236 -58.52307,-4.027729 -98.43359,-12.121096 l -0.0137,0.07227 c -5.1005,-4.933387 -11.71108,-7.472656 -20.11524,-7.472656 z m 32.21094,36.380857 c 0,0 14.04396,14.91156 73.15234,17.1875 30.96711,1.19237 79.006,-0.74609 79.006,-0.74609 -4.93182,81.82341 1.29908,184.74461 -11.73733,249.93294 0,0 -84.36241,8.33168 -129.65734,-16.33138 -1.8,-17.325 -3.15,-38.70039 -4.5,-61.65039 h 1.125 c 14.4,-0.675 22.72539,-10.34883 22.27539,-20.92383 -0.45,-11.025 -9.9,-18.90117 -24.75,-18.45117 h -0.22656 c -1.8,-47.25 -2.47383,-95.39961 -2.92383,-126.22461 -0.0986,-8.57459 -0.7281,-16.06275 -1.76367,-22.79297 z m -42.33594,10.64258 7.19922,2.02539 c -0.9,35.1 -1.57422,88.19961 -0.44922,138.59961 -22.95,1.575 -46.575,4.05117 -69.749997,7.20117 C 114.1832,221.15156 139.3832,160.17539 154.9082,131.15039 Z"
       sodipodi:nodetypes="cccccccssccccssccccccsccccscccccccccccccccccc" />
    <g
       id="g4"
       inkscape:label="Text save"
       style="display:none">
      <text
         xml:space="preserve"
         style="font-size:450px;line-height:1.2;font-family:'Minion Pro';-inkscape-font-specification:'Minion Pro';text-align:end;word-spacing:0px;writing-mode:lr-tb;direction:ltr;text-anchor:end;fill:#ffffff;stroke-width:5.00001;stroke-opacity:0.713725"
         x="261.78299"
         y="416.67627"
         id="text3"><tspan
           sodipodi:role="line"
           id="tspan3"
           x="261.78299"
           y="416.67627"
           style="font-style:normal;font-variant:normal;font-weight:normal;font-stretch:normal;font-size:450px;font-family:'Monaspace Radon';-inkscape-font-specification:'Monaspace Radon';fill:#f5decc;fill-opacity:1;stroke-width:5.00001">A</tspan></text>
      <text
         xml:space="preserve"
         style="font-size:450px;line-height:1.2;font-family:'Minion Pro';-inkscape-font-specification:'Minion Pro';text-align:end;word-spacing:0px;writing-mode:lr-tb;direction:ltr;text-anchor:end;fill:#ffffff;stroke-width:5.00001;stroke-opacity:0.713725"
         x="521.87012"
         y="423.14871"
         id="text4"><tspan
           sodipodi:role="line"
           id="tspan4"
           x="521.87012"
           y="423.14871"
           style="font-style:normal;font-variant:normal;font-weight:normal;font-stretch:normal;font-size:450px;font-family:'Monaspace Radon';-inkscape-font-specification:'Monaspace Radon';fill:#f5decc;fill-opacity:1;stroke-width:5.00001">T</tspan></text>
    </g>
  </g>
</svg>
