<?xml version="1.0" encoding="UTF-8" standalone="no"?>
<svg
   id="Layer_1"
   viewBox="0 0 512 512"
   width="512"
   height="512"
   version="1.1"
   sodipodi:docname="figma.svg"
   inkscape:version="1.4.2 (ebf0e940d0, 2025-05-08)"
   xmlns:inkscape="http://www.inkscape.org/namespaces/inkscape"
   xmlns:sodipodi="http://sodipodi.sourceforge.net/DTD/sodipodi-0.dtd"
   xmlns="http://www.w3.org/2000/svg"
   xmlns:svg="http://www.w3.org/2000/svg"
   xmlns:rdf="http://www.w3.org/1999/02/22-rdf-syntax-ns#"
   xmlns:cc="http://creativecommons.org/ns#"
   xmlns:dc="http://purl.org/dc/elements/1.1/">
  <defs
     id="defs1" />
  <sodipodi:namedview
     id="namedview1"
     pagecolor="#ffffff"
     bordercolor="#000000"
     borderopacity="0.25"
     inkscape:showpageshadow="2"
     inkscape:pageopacity="0.0"
     inkscape:pagecheckerboard="0"
     inkscape:deskcolor="#d1d1d1"
     inkscape:zoom="1.047154"
     inkscape:cx="205.7959"
     inkscape:cy="274.07621"
     inkscape:window-width="1908"
     inkscape:window-height="1028"
     inkscape:window-x="0"
     inkscape:window-y="0"
     inkscape:window-maximized="1"
     inkscape:current-layer="Layer_1" />
  <style
     id="style1">.st0{fill:#0acf83}.st1{fill:#a259ff}.st2{fill:#f24e1e}.st3{fill:#ff7262}.st4{fill:#1abcfe}</style>
  <title
     id="title1">Figma.logo</title>
  <desc
     id="desc1">Created using Figma</desc>
  <g
     id="g1"
     inkscape:label="Figma"
     transform="matrix(1.7066667,0,0,1.7066667,85.33333,-5e-6)">
    <path
       id="path0_fill"
       class="st0"
       d="m 50,300 c 27.6,0 50,-22.4 50,-50 V 200 H 50 c -27.6,0 -50,22.4 -50,50 0,27.6 22.4,50 50,50 z"
       inkscape:label="Green" />
    <path
       id="path1_fill"
       class="st1"
       d="m 0,150 c 0,-27.6 22.4,-50 50,-50 h 50 V 200 H 50 C 22.4,200 0,177.6 0,150 Z"
       inkscape:label="Purple" />
    <path
       id="path1_fill_1_"
       class="st2"
       d="M 0,50 C 0,22.4 22.4,0 50,0 h 50 V 100 H 50 C 22.4,100 0,77.6 0,50 Z"
       inkscape:label="Orange" />
    <path
       id="path2_fill"
       class="st3"
       d="m 100,0 h 50 c 27.6,0 50,22.4 50,50 0,27.6 -22.4,50 -50,50 h -50 z"
       inkscape:label="Pink" />
    <path
       id="path3_fill"
       class="st4"
       d="m 200,150 c 0,27.6 -22.4,50 -50,50 -27.6,0 -50,-22.4 -50,-50 0,-27.6 22.4,-50 50,-50 27.6,0 50,22.4 50,50 z"
       inkscape:label="Blue" />
  </g>
  <metadata
     id="metadata1">
    <rdf:RDF>
      <cc:Work
         rdf:about="">
        <dc:title>Figma.logo</dc:title>
      </cc:Work>
    </rdf:RDF>
  </metadata>
</svg>
