<?xml version="1.0" encoding="UTF-8" standalone="no"?>
<svg
   width="512"
   height="512"
   viewBox="0 0 512 512"
   version="1.1"
   id="svg12"
   sodipodi:docname="graphite.svg"
   inkscape:version="1.4.2 (ebf0e940d0, 2025-05-08)"
   xmlns:inkscape="http://www.inkscape.org/namespaces/inkscape"
   xmlns:sodipodi="http://sodipodi.sourceforge.net/DTD/sodipodi-0.dtd"
   xmlns="http://www.w3.org/2000/svg"
   xmlns:svg="http://www.w3.org/2000/svg">
  <defs
     id="defs12" />
  <sodipodi:namedview
     id="namedview12"
     pagecolor="#ffffff"
     bordercolor="#000000"
     borderopacity="0.25"
     inkscape:showpageshadow="2"
     inkscape:pageopacity="0.0"
     inkscape:pagecheckerboard="0"
     inkscape:deskcolor="#d1d1d1"
     inkscape:zoom="0.82732447"
     inkscape:cx="371.07569"
     inkscape:cy="262.29129"
     inkscape:window-width="1908"
     inkscape:window-height="1028"
     inkscape:window-x="0"
     inkscape:window-y="0"
     inkscape:window-maximized="1"
     inkscape:current-layer="svg12" />
  <g
     id="g12">
    <path
       fill="#f1decd"
       d="M 447.27755,198.848 354.3709,37.930667 C 350.48823,32 344.02422,28.266667 336.94156,27.861334 H 151.12823 C 144.04555,28.266667 137.58155,32 133.69889,37.930667 L 40.770892,198.848 c -3.178667,6.33601 -3.178667,13.78134 0,20.11733 L 133.69889,379.904 c 3.88266,5.93068 10.34666,9.66399 17.42934,10.048 h 185.81333 c 7.08266,-0.38401 13.54667,-4.11732 17.42934,-10.048 l 92.92799,-160.93867 c 3.15733,-6.33599 3.15733,-13.78132 -0.0213,-20.11733 z"
       id="path9"
       style="stroke-width:2.13332" />
    <polygon
       fill="#3ea8ff"
       points="84.53,9.74 149.31,121.45 206.4,89.03 174.28,33.39 160.62,9.74 "
       id="polygon9"
       transform="matrix(2.1333333,0,0,2.1333333,9.368225,0)" />
    <polygon
       fill="#2180ce"
       points="113.96,139.45 159.89,113.73 128.69,59.7 99.86,9.74 60.78,9.74 48.73,26.46 83.12,86.01 "
       id="polygon10"
       transform="matrix(2.1333333,0,0,2.1333333,9.368225,0)" />
    <polygon
       fill="#deba92"
       points="208.65,92.93 154.93,119.15 221.23,219.97 "
       id="polygon11"
       transform="matrix(2.1333333,0,0,2.1333333,9.368225,0)" />
    <polygon
       fill="#d49b64"
       points="161.23,116.05 115.65,142.37 209.23,199.18 "
       id="polygon12"
       transform="matrix(2.1333333,0,0,2.1333333,9.368225,0)" />
    <path
       fill="#473a3a"
       d="m 502.55223,467.15734 -0.14933,-1.47202 c -1.83468,-20.03199 -23.78667,-258.94399 -23.85067,-259.96799 -0.49067,-6.05866 -2.28267,-11.94666 -5.22667,-17.25866 -0.0641,-0.192 -0.14933,-0.36266 -0.23467,-0.53333 l -0.128,-0.32 -0.0641,0.0641 -0.0426,-0.0213 0.0854,-0.0426 L 447.76825,144.0001 376.96289,21.333334 C 369.32556,8.128 355.24556,0 339.99222,0 H 148.01355 c -15.23201,0 -29.312,8.128 -36.94933,21.333334 L 15.064225,187.584 c -7.6159997,13.20533 -7.6159997,29.46133 0,42.66667 l 95.999995,166.25066 c 7.61601,13.20533 21.69601,21.33333 36.94933,21.33333 h 191.97867 c 8.23468,-0.0641 16.27733,-2.53865 23.14667,-7.08266 l 82.32533,59.05067 C 430.59489,465.152 415.21356,462.4 399.66156,461.63201 361.02689,459.776 247.76823,461.03467 119.29889,471.50934 66.584226,475.79733 41.666892,488.32 44.568226,490.77333 c 7.445333,6.35733 16.255999,8.87467 60.159994,8.704 39.08267,-0.12799 152.85334,4.07467 187.22133,6.18666 24.34134,1.51468 49.94134,6.14401 68.35201,6.33601 19.62666,-0.256 39.18933,-1.74934 58.62399,-4.48 29.31201,-4.032 68.18134,-12.16 77.12001,-22.976 4.71466,-4.48001 7.12534,-10.90133 6.50667,-17.38666 z M 142.68022,51.882666 c 3.56267,-5.439998 9.49334,-8.874666 16,-9.237332 h 170.64534 c 6.48533,0.362666 12.39466,3.775999 15.97867,9.194667 l 70.95466,122.901329 c -10.64533,11.09334 -19.88266,23.46667 -27.49867,36.82134 l -52.84266,5.86666 -31.50935,42.83733 c -15.38131,-0.0854 -30.71998,1.74934 -45.65332,5.41867 L 139.01089,58.261334 Z m 16,323.285334 c -6.50666,-0.36267 -12.43733,-3.79734 -16,-9.23734 l -85.333328,-147.776 c -2.922667,-5.80266 -2.922667,-12.67198 0,-18.47466 l 57.023998,-98.73066 127.14668,220.24533 0.0854,-0.0426 c 1.472,2.64533 3.49867,4.928 5.952,6.72 l 65.98401,47.31733 z m 249.088,15.08266 -123.52,-88.59733 c 13.63201,-2.96533 27.54134,-4.45867 41.49333,-4.45867 l 31.50934,-42.81599 52.84267,-5.86667 c 6.95466,-12.07467 15.21067,-23.36001 24.57599,-33.68533 l 14.99734,151.25332 c -17.74932,-1.89866 -34.688,7.87201 -41.89867,24.17067 z M 183.53356,330.048 c 3.17867,4.97066 1.70666,11.56267 -3.24267,14.74133 -4.97067,3.17868 -11.56267,1.70666 -14.74133,-3.24266 -0.17067,-0.25601 -0.32,-0.53334 -0.46934,-0.81067 L 90.413558,211.43467 c -3.178666,-4.97066 -1.706666,-11.56267 3.242667,-14.74134 4.970667,-3.17866 11.562675,-1.70666 14.741335,3.24267 0.17067,0.256 0.32,0.53333 0.46933,0.81067 z"
       id="path12"
       style="stroke-width:2.13332" />
  </g>
</svg>
