<?xml version="1.0" encoding="UTF-8" standalone="no"?>
<svg
   xml:space="preserve"
   viewBox="0 0 512 512"
   version="1.1"
   id="svg2"
   sodipodi:docname="illustrator.svg"
   width="512"
   height="512"
   inkscape:version="1.4.2 (ebf0e940d0, 2025-05-08)"
   xmlns:inkscape="http://www.inkscape.org/namespaces/inkscape"
   xmlns:sodipodi="http://sodipodi.sourceforge.net/DTD/sodipodi-0.dtd"
   xmlns="http://www.w3.org/2000/svg"
   xmlns:svg="http://www.w3.org/2000/svg"><defs
   id="defs2" /><sodipodi:namedview
   id="namedview2"
   pagecolor="#ffffff"
   bordercolor="#000000"
   borderopacity="0.25"
   inkscape:showpageshadow="2"
   inkscape:pageopacity="0.0"
   inkscape:pagecheckerboard="0"
   inkscape:deskcolor="#d1d1d1"
   inkscape:zoom="1.2453653"
   inkscape:cx="140.11953"
   inkscape:cy="211.18302"
   inkscape:window-width="1908"
   inkscape:window-height="1028"
   inkscape:window-x="0"
   inkscape:window-y="0"
   inkscape:window-maximized="1"
   inkscape:current-layer="svg2" />
  <path
   fill="#330000"
   d="M 90.666667,7.9827345 H 421.33333 C 471.46667,7.9827345 512,48.516068 512,98.649401 V 416.51607 c 0,50.13334 -40.53333,90.66667 -90.66667,90.66667 H 90.666667 C 40.533333,507.18274 0,466.64941 0,416.51607 V 98.649401 C 0,48.516068 40.533333,7.9827345 90.666667,7.9827345 Z"
   id="path1"
   style="stroke-width:2.13333" />
  <path
   fill="#ff9a00"
   d="m 247.46666,306.6494 h -79.36 l -16.21333,50.13333 c -0.42666,1.92001 -2.13333,3.2 -4.05333,2.98667 h -40.10667 c -2.34666,0 -2.98666,-1.28 -2.34666,-3.83999 L 174.08,158.1694 c 0.64,-2.13333 1.28,-4.48 2.13334,-7.04 0.85332,-4.48 1.28,-9.17334 1.28,-13.86666 -0.21334,-1.06667 0.63999,-2.13333 1.70666,-2.34667 h 55.25334 c 1.70666,0 2.55999,0.64 2.77333,1.70667 l 77.86666,219.73333 c 0.64,2.34667 0,3.41333 -2.13333,3.41333 h -44.58667 c -1.49333,0.21333 -2.98667,-0.85333 -3.41333,-2.34666 z M 180.48,263.34273 h 54.18667 c -1.28,-4.48 -2.98667,-9.81333 -4.90667,-15.35999 -1.92,-5.76 -3.84,-11.94667 -5.76,-18.34667 -2.13333,-6.61334 -4.05333,-13.01333 -6.18667,-19.62666 -2.13333,-6.61335 -4.05333,-12.8 -5.75999,-18.98667 -1.70667,-5.97334 -3.20001,-11.52001 -4.69334,-16.64001 h -0.42666 c -1.92001,9.17334 -4.26667,18.34668 -7.25334,27.52 -3.2,10.24001 -6.4,20.90667 -9.81334,31.57334 -2.98666,10.88 -6.18666,20.90666 -9.38666,29.86666 z M 362.66667,172.2494 c -7.04,0.21334 -13.86667,-2.56 -18.98667,-7.46666 -4.90667,-5.33334 -7.46666,-12.37334 -7.25333,-19.62667 -0.21333,-7.25333 2.56,-14.08 7.68,-18.98666 5.11999,-4.90668 11.94666,-7.46667 18.98667,-7.46667 8.32,0 14.71999,2.55999 19.41333,7.46667 4.69333,5.11999 7.25333,11.94666 7.04,18.98666 0.21333,7.25333 -2.34667,14.29333 -7.46666,19.62667 -4.90668,5.11999 -12.16001,7.89332 -19.41334,7.46666 z M 338.77333,357.42274 V 193.15607 c 0,-2.13333 0.85334,-2.98667 2.77334,-2.98667 h 42.24 c 1.92,0 2.77334,1.06667 2.77334,2.98667 v 164.26667 c 0,2.34666 -0.85334,3.41333 -2.77334,3.41333 h -41.81334 c -2.13333,0 -3.2,-1.28 -3.2,-3.41333 z"
   id="path2"
   style="stroke-width:2.13333" />
</svg>
