<?xml version="1.0" encoding="UTF-8" standalone="no"?>
<svg
   version="1.1"
   viewBox="0 0 512 512"
   xml:space="preserve"
   id="svg3"
   sodipodi:docname="indesign.svg"
   width="512"
   height="512"
   inkscape:version="1.4.2 (ebf0e940d0, 2025-05-08)"
   xmlns:inkscape="http://www.inkscape.org/namespaces/inkscape"
   xmlns:sodipodi="http://sodipodi.sourceforge.net/DTD/sodipodi-0.dtd"
   xmlns="http://www.w3.org/2000/svg"
   xmlns:svg="http://www.w3.org/2000/svg"
   xmlns:rdf="http://www.w3.org/1999/02/22-rdf-syntax-ns#"
   xmlns:cc="http://creativecommons.org/ns#"
   xmlns:dc="http://purl.org/dc/elements/1.1/"><defs
   id="defs3" /><sodipodi:namedview
   id="namedview3"
   pagecolor="#ffffff"
   bordercolor="#000000"
   borderopacity="0.25"
   inkscape:showpageshadow="2"
   inkscape:pageopacity="0.0"
   inkscape:pagecheckerboard="0"
   inkscape:deskcolor="#d1d1d1"
   inkscape:zoom="1.1746826"
   inkscape:cx="206.43874"
   inkscape:cy="297.95282"
   inkscape:window-width="1908"
   inkscape:window-height="1028"
   inkscape:window-x="0"
   inkscape:window-y="0"
   inkscape:window-maximized="1"
   inkscape:current-layer="svg3" />
<title
   id="title1">Adobe InDesign CC logo</title>
<style
   type="text/css"
   id="style1">
	.st0{fill:#49021F;}
	.st1{fill:#FF3366;}
</style>
	<path
   class="st0"
   d="M 90.666665,6.400001 H 421.33333 C 471.46666,6.400001 512,46.933334 512,97.066669 V 414.93333 C 512,465.06667 471.46666,505.6 421.33333,505.6 H 90.666665 C 40.533333,505.6 0,465.06667 0,414.93333 V 97.066669 C 0,46.933334 40.533333,6.400001 90.666665,6.400001 Z"
   id="path1"
   style="stroke-width:2.13333" />
	<g
   id="vlpa"
   transform="matrix(2.1333333,0,0,2.1333333,0,6.400001)">
		<g
   id="vlpb">
			<path
   class="st1"
   d="m 87.2,61.2 v 103 c 0,1.1 -0.5,1.6 -1.4,1.6 H 66.2 c -0.9,0 -1.3,-0.5 -1.3,-1.6 v -103 c 0,-0.9 0.5,-1.3 1.4,-1.3 h 19.5 c 0.6,-0.1 1.2,0.3 1.3,1 0.1,0.1 0.1,0.2 0.1,0.3 z"
   id="path2" />
			<path
   class="st1"
   d="m 145,167 c -7.4,0.1 -14.8,-1.4 -21.5,-4.5 -6.3,-2.9 -11.5,-7.7 -15.1,-13.6 -3.7,-6.1 -5.5,-13.7 -5.5,-22.8 -0.1,-7.4 1.8,-14.7 5.5,-21.1 3.8,-6.5 9.3,-11.9 15.9,-15.5 7,-3.9 15.4,-5.8 25.3,-5.8 0.5,0 1.2,0 2.1,0.1 0.9,0.1 1.9,0.1 3.1,0.2 V 52.4 c 0,-0.7 0.3,-1.1 1,-1.1 h 20.3 c 0.5,-0.1 0.9,0.3 1,0.7 v 0.2 95.2 c 0,1.8 0.1,3.8 0.2,6 0.2,2.1 0.3,4.1 0.4,5.8 0,0.7 -0.3,1.3 -1,1.6 -5.2,2.2 -10.7,3.8 -16.3,4.8 -5,0.9 -10.2,1.4 -15.4,1.4 z m 9.8,-20 v -44 c -0.9,-0.2 -1.8,-0.4 -2.7,-0.5 -1.1,-0.1 -2.2,-0.2 -3.3,-0.2 -3.9,0 -7.8,0.8 -11.3,2.6 -3.4,1.7 -6.3,4.2 -8.5,7.4 -2.2,3.2 -3.3,7.5 -3.3,12.7 -0.1,3.5 0.5,7 1.7,10.3 1,2.7 2.5,5.1 4.5,7.1 1.9,1.8 4.2,3.2 6.8,4 2.7,0.9 5.5,1.3 8.3,1.3 1.5,0 2.9,-0.1 4.2,-0.2 1.3,0.1 2.5,-0.1 3.6,-0.5 z"
   id="path3" />
		</g>
	</g>

<metadata
   id="metadata3"><rdf:RDF><cc:Work
       rdf:about=""><dc:title>Adobe InDesign CC logo</dc:title></cc:Work></rdf:RDF></metadata></svg>
