<?xml version="1.0" encoding="UTF-8" standalone="no"?>
<svg
   viewBox="0 0 512 512"
   version="1.1"
   id="svg1"
   sodipodi:docname="javascript.svg"
   width="512"
   height="512"
   inkscape:version="1.4.2 (ebf0e940d0, 2025-05-08)"
   xmlns:inkscape="http://www.inkscape.org/namespaces/inkscape"
   xmlns:sodipodi="http://sodipodi.sourceforge.net/DTD/sodipodi-0.dtd"
   xmlns="http://www.w3.org/2000/svg"
   xmlns:svg="http://www.w3.org/2000/svg">
  <defs
     id="defs1" />
  <sodipodi:namedview
     id="namedview1"
     pagecolor="#ffffff"
     bordercolor="#000000"
     borderopacity="0.25"
     inkscape:showpageshadow="2"
     inkscape:pageopacity="0.0"
     inkscape:pagecheckerboard="0"
     inkscape:deskcolor="#d1d1d1"
     inkscape:zoom="0.41737647"
     inkscape:cx="128.18164"
     inkscape:cy="-378.55512"
     inkscape:window-width="1908"
     inkscape:window-height="1028"
     inkscape:window-x="0"
     inkscape:window-y="0"
     inkscape:window-maximized="1"
     inkscape:current-layer="svg1" />
  <rect
     width="512"
     height="512"
     fill="#f7df1e"
     id="rect1"
     x="0"
     y="0"
     style="stroke-width:0.812698" />
  <path
     d="m 343.93397,400.00203 c 10.31314,16.83911 23.73079,29.21651 47.46159,29.21651 19.93549,0 32.67047,-9.96368 32.67047,-23.73079 0,-16.49778 -13.08444,-22.34108 -35.0273,-31.93905 l -12.02794,-5.16064 c -34.71847,-14.79111 -57.78285,-33.32063 -57.78285,-72.49269 0,-36.08381 27.49358,-63.55302 70.46095,-63.55302 30.58997,0 52.58159,10.64635 68.42921,38.5219 l -37.4654,24.05588 c -8.24889,-14.79111 -17.14794,-20.61816 -30.96381,-20.61816 -14.09219,0 -23.02375,8.93968 -23.02375,20.61816 0,14.43352 8.93969,20.27682 29.58223,29.2165 l 12.02793,5.15251 c 40.87873,17.52991 63.95937,35.40115 63.95937,75.58096 0,43.31682 -34.02769,67.04761 -79.72572,67.04761 -44.68216,0 -73.5492,-21.29269 -87.6739,-49.20076 z m -169.95962,4.16914 c 7.55809,13.40953 14.43352,24.74667 30.96381,24.74667 15.80698,0 25.77879,-6.18463 25.77879,-30.23238 V 235.08927 h 48.11175 v 164.24635 c 0,49.81841 -29.20838,72.4927 -71.84254,72.4927 -38.52191,0 -60.83048,-19.93549 -72.17575,-43.94667 z"
     id="path1"
     style="stroke-width:0.812698" />
</svg>
