<?xml version="1.0" encoding="UTF-8" standalone="no"?>
<svg
   xml:space="preserve"
   viewBox="0 0 512 511.99999"
   y="0px"
   x="0px"
   sodipodi:docname="kdenlive.svg"
   inkscape:version="1.4.2 (ebf0e940d0, 2025-05-08)"
   inkscape:export-ydpi="90"
   inkscape:export-xdpi="90"
   inkscape:export-filename="/home/farid/Gunga/Kdenlive/kdenlive-logo-manual.png"
   id="svg4446"
   version="1.1"
   width="512"
   height="512"
   xmlns:inkscape="http://www.inkscape.org/namespaces/inkscape"
   xmlns:sodipodi="http://sodipodi.sourceforge.net/DTD/sodipodi-0.dtd"
   xmlns="http://www.w3.org/2000/svg"
   xmlns:svg="http://www.w3.org/2000/svg"
   xmlns:rdf="http://www.w3.org/1999/02/22-rdf-syntax-ns#"
   xmlns:cc="http://creativecommons.org/ns#"
   xmlns:dc="http://purl.org/dc/elements/1.1/"><metadata
   id="metadata855">
  <rdf:RDF>
    <cc:Work
   rdf:about="">
      <dc:format>image/svg+xml</dc:format>
      <dc:type
   rdf:resource="http://purl.org/dc/dcmitype/StillImage" />
    </cc:Work>
  </rdf:RDF>
</metadata>
<defs
   id="defs853" />

<style
   id="style833"
   type="text/css">
	.st0{fill:#83B9F5;}
	.st1{fill:#F38577;}
	.st2{fill:#527EB2;}
</style>

<sodipodi:namedview
   inkscape:document-rotation="0"
   units="px"
   showguides="true"
   showgrid="false"
   showborder="true"
   pagecolor="#ffffff"
   inkscape:zoom="1.1902595"
   inkscape:window-y="0"
   inkscape:window-x="0"
   inkscape:window-width="1908"
   inkscape:window-maximized="1"
   inkscape:window-height="1028"
   inkscape:pageshadow="2"
   inkscape:pageopacity="0.0"
   inkscape:guide-bbox="true"
   inkscape:document-units="px"
   inkscape:cy="228.5216"
   inkscape:cx="202.89693"
   inkscape:current-layer="g5995-0-6"
   id="base"
   borderopacity="1.0"
   bordercolor="#666666"
   inkscape:showpageshadow="2"
   inkscape:pagecheckerboard="0"
   inkscape:deskcolor="#d1d1d1">
	</sodipodi:namedview>

<g
   inkscape:label="Camada 1"
   inkscape:groupmode="layer"
   transform="translate(0,75.637839)"
   id="layer1">
	<g
   transform="matrix(0.88963843,0,0,0.88963843,1492.3067,1727.8447)"
   id="g5995-0-6">
		<g
   transform="matrix(3.2061996,0,0,3.2061996,3659.5744,4521.9641)"
   id="g5997-6-2">
			<path
   d="m -1598.1,-2004.7 v 7.5 h 10.3 v -7.5 z"
   class="st0"
   inkscape:connector-curvature="0"
   id="path5999-1-9" />

			<path
   d="m -1606.2,-1992.6 v 7.5 h 18.5 v -7.5 z"
   class="st0"
   inkscape:connector-curvature="0"
   id="path6001-5-1" />

			<path
   d="m -1627.9,-1980.5 v 7.5 h 40.1 v -7.5 z"
   class="st0"
   inkscape:connector-curvature="0"
   id="path6003-54-2" />

			<path
   d="m -1650,-1968.5 v 7.5 h 62.2 v -7.5 z"
   class="st0"
   inkscape:connector-curvature="0"
   id="path6005-7-7" />

			<path
   d="m -1664.6,-1956.4 v 7.5 h 76.8 v -7.5 z"
   class="st0"
   inkscape:connector-curvature="0"
   id="path6007-6-09" />

			<path
   d="m -1640.3,-1944.4 v 7.5 h 52.5 v -7.5 z"
   class="st0"
   inkscape:connector-curvature="0"
   id="path6009-5-3" />

			<path
   d="m -1618.9,-1932.3 v 7.5 h 31.2 v -7.5 z"
   class="st0"
   inkscape:connector-curvature="0"
   id="path6011-6-6" />

			<path
   d="m -1627.3,-1920.3 v 7.5 h 39.6 v -7.5 z"
   class="st0"
   inkscape:connector-curvature="0"
   id="path6013-9-0" />

			<path
   d="m -1606.9,-1908.8 v 7.5 h 19.1 v -7.5 z"
   class="st0"
   inkscape:connector-curvature="0"
   id="path6015-3-6" />

		</g>

		<g
   transform="matrix(-11.212239,0,0,11.212239,9187.5283,-5888.118)"
   id="g6017-7-2">
			<path
   d="m 938.1,349.6 h 9.3 l -4.6,7.1 z"
   class="st1"
   sodipodi:nodetypes="cccc"
   inkscape:connector-curvature="0"
   id="path6019-4-61" />

			<path
   d="m 942.2,350.9 v 37.2 h 1.2 v -37.2 z"
   class="st1"
   inkscape:connector-curvature="0"
   id="path6021-5-8" />

		</g>

		<path
   d="m -1327.2292,-1905.5594 c -4.7861,0 -8.9341,3.829 -8.9341,8.6151 v 314.929 c 0,7.0197 7.9769,11.1677 13.7203,7.0197 l 216.9724,-157.3049 c 4.7861,-3.5099 4.7861,-10.5296 0,-14.0394 l -216.9724,-157.305 c -1.2763,-1.2763 -2.8717,-1.9145 -4.7862,-1.9145 z"
   class="st2"
   sodipodi:nodetypes="cccccccc"
   inkscape:connector-curvature="0"
   id="path6023-2-7"
   style="stroke-width:3.19077" />

	</g>

</g>

</svg>
