<?xml version="1.0" encoding="UTF-8" standalone="no"?>
<svg
   enable-background="new 0 0 35 54"
   viewBox="0 0 512 512"
   width="512"
   height="512"
   version="1.1"
   id="svg4"
   sodipodi:docname="macos.svg"
   inkscape:version="1.4.2 (ebf0e940d0, 2025-05-08)"
   xmlns:inkscape="http://www.inkscape.org/namespaces/inkscape"
   xmlns:sodipodi="http://sodipodi.sourceforge.net/DTD/sodipodi-0.dtd"
   xmlns="http://www.w3.org/2000/svg"
   xmlns:svg="http://www.w3.org/2000/svg">
  <sodipodi:namedview
     id="namedview1"
     pagecolor="#ffffff"
     bordercolor="#000000"
     borderopacity="0.25"
     inkscape:showpageshadow="2"
     inkscape:pageopacity="0.0"
     inkscape:pagecheckerboard="0"
     inkscape:deskcolor="#d1d1d1"
     inkscape:zoom="0.91468233"
     inkscape:cx="183.12369"
     inkscape:cy="251.45342"
     inkscape:window-width="1908"
     inkscape:window-height="1028"
     inkscape:window-x="0"
     inkscape:window-y="0"
     inkscape:window-maximized="1"
     inkscape:current-layer="svg4" />
  <defs
     id="defs8" />
  <path
     d="m 237.92942,310.81412 c 0,43.06824 -22.43765,70.17413 -58.27765,70.17413 -35.84,0 -58.27765,-27.25649 -58.27765,-70.17413 0,-43.21882 22.43765,-70.32471 58.27765,-70.32471 35.84,0 58.27765,27.10589 58.27765,70.32471 z m 49.99529,-151.94353 -15.66117,1.05412 c -8.88472,0.60235 -12.8,3.76471 -12.8,9.48705 0,6.02354 4.96941,9.33647 11.89646,9.33647 9.48706,0 16.56471,-6.17411 16.56471,-14.45646 z M 512,256 C 512,398.90823 398.90823,512 256,512 113.09177,512 0,398.90823 0,256 0,113.09177 113.09177,0 256,0 398.90823,0 512,113.09177 512,256 Z M 315.33177,155.70824 c 0,20.78118 11.44471,33.43059 30.11765,33.43059 15.81175,0 25.75059,-8.88471 27.40705,-21.53413 h -12.34823 c -1.65647,6.92706 -7.07765,10.69178 -15.05882,10.69178 -10.54118,0 -17.01648,-8.58355 -17.01648,-22.58824 0,-13.85412 6.4753,-22.13648 17.01648,-22.13648 8.43294,0 13.70352,4.81883 15.05882,10.99295 h 12.34823 C 371.20001,132.21647 361.56236,122.88 345.44942,122.88 c -18.67294,-0.1506 -30.11765,12.49883 -30.11765,32.82824 z M 143.20941,124.08471 v 63.84941 h 12.64941 v -39.15294 c 0,-8.28235 5.87295,-14.90824 13.55295,-14.90824 7.5294,0 12.34823,4.51765 12.34823,11.74589 v 42.31529 h 12.34824 v -40.35764 c 0,-7.68001 5.27059,-13.70354 13.55294,-13.70354 8.28235,0 12.34823,4.21648 12.34823,13.10118 v 40.96 h 12.64942 v -44.12235 c 0,-13.25177 -7.52942,-21.08236 -20.48001,-21.08236 -8.8847,0 -16.26352,4.51765 -19.42587,11.44471 h -1.05413 c -2.86116,-6.92706 -8.8847,-11.44471 -17.61881,-11.44471 -8.58353,0 -15.05884,4.21647 -17.76942,11.44471 h -0.90352 v -10.24 z m 117.15765,186.72941 c 0,-55.56706 -31.02118,-90.50352 -80.71529,-90.50352 -49.69412,0 -80.715298,34.93646 -80.715298,90.50352 0,55.56706 31.021178,90.35294 80.715298,90.35294 49.69411,0 80.71529,-34.93646 80.71529,-90.35294 z m 7.83059,-121.82588 c 8.43295,0 15.36,-3.61412 19.27529,-10.08942 h 1.05412 v 9.0353 h 12.19764 v -43.67059 c 0,-13.40235 -9.03528,-21.38353 -25.14822,-21.38353 -14.60707,0 -24.84706,7.07765 -26.20235,17.76941 h 12.19763 c 1.3553,-4.66823 6.32471,-7.22823 13.40236,-7.22823 8.58353,0 13.10118,3.91529 13.10118,10.99294 v 5.57177 L 270.75765,151.04 c -15.20942,0.90353 -23.79295,7.5294 -23.79295,19.1247 -0.1506,11.44472 8.88472,18.82354 21.23295,18.82354 z m 138.08941,159.47294 c 0,-24.84707 -14.45647,-39.30353 -50.89882,-47.28471 L 335.96236,296.96 c -23.94353,-5.27058 -33.28,-14.75764 -33.28,-28.46118 0,-17.7694 16.86588,-28.46118 38.70117,-28.46118 22.88941,0 37.94824,11.74589 39.90589,31.02119 h 21.83529 c -1.05411,-29.66589 -26.20235,-50.59765 -61.13883,-50.59765 -36.29175,0 -61.74118,20.3294 -61.74118,49.09176 0,24.84706 15.20942,40.80941 50.29648,48.48941 l 19.42588,4.21647 C 374.21176,327.52942 384,337.31765 384,351.9247 c 0,17.16707 -17.31765,29.66589 -40.96,29.66589 -25.14824,0 -42.61647,-11.4447 -45.17647,-30.26824 h -21.83529 c 2.10823,30.26824 27.55764,49.84471 65.80706,49.84471 39.00235,0 64.45176,-20.32941 64.45176,-52.70588 z"
     fill="#1d1d1f"
     id="path2"
     style="stroke-width:15.0589" />
</svg>
