<?xml version="1.0" encoding="UTF-8" standalone="no"?>
<svg
   height="512"
   viewBox="0 0 512 512.00001"
   width="512"
   version="1.1"
   id="svg1"
   sodipodi:docname="penpot.svg"
   inkscape:version="1.4.2 (ebf0e940d0, 2025-05-08)"
   xmlns:inkscape="http://www.inkscape.org/namespaces/inkscape"
   xmlns:sodipodi="http://sodipodi.sourceforge.net/DTD/sodipodi-0.dtd"
   xmlns="http://www.w3.org/2000/svg"
   xmlns:svg="http://www.w3.org/2000/svg">
  <defs
     id="defs1" />
  <sodipodi:namedview
     id="namedview1"
     pagecolor="#ffffff"
     bordercolor="#000000"
     borderopacity="0.25"
     inkscape:showpageshadow="2"
     inkscape:pageopacity="0.0"
     inkscape:pagecheckerboard="0"
     inkscape:deskcolor="#d1d1d1"
     inkscape:zoom="0.47582396"
     inkscape:cx="344.66528"
     inkscape:cy="380.39278"
     inkscape:window-width="1908"
     inkscape:window-height="1028"
     inkscape:window-x="0"
     inkscape:window-y="0"
     inkscape:window-maximized="1"
     inkscape:current-layer="svg1" />
  <path
     d="m 157.28776,-1e-5 -53.8386,75.830763 V 118.6964 l -46.85186,22.28412 -0.422042,-0.19945 v 17.61569 262.0386 L 238.83626,506.73029 250,512 l 11.16084,-5.26971 182.6639,-86.29493 V 140.78107 l -0.344,0.16187 -46.86631,-22.28991 V 75.830753 L 394.97542,73.524009 342.77294,-9.9999999e-6 288.93145,75.830753 v 0.07516 l -39.17716,-55.17698 -38.87364,54.752051 -1.39041,-1.956977 z m 9.52473,44.047923 20.82434,29.328671 h -60.69814 l 20.58152,-28.984679 z m 185.48518,0 20.82433,29.328671 h -60.69814 l 20.57863,-28.984679 z m -93.01864,20.731832 20.82433,29.325784 H 219.40811 L 239.98673,65.12085 Z M 121.18338,88.156549 h 28.78811 v 96.935481 l -28.78811,-13.60056 z m 43.56808,0 h 28.64357 l -0.003,117.447631 -28.64357,-13.53119 z m 141.9142,0 h 28.79101 l -0.003,103.818161 -28.78522,13.59767 -0.003,-117.415831 z m 43.56808,0 h 28.64357 v 83.303121 l -28.64357,13.53119 z M 213.6499,108.88549 h 28.78812 V 228.77284 L 213.6499,215.17228 Z m 43.56808,0 h 28.64359 l -0.003,106.51804 -28.64357,13.53409 0.003,-120.05213 z m 139.39355,31.85801 25.34534,10.36302 -25.34534,11.97312 z m -293.16237,0.0376 v 22.33325 L 78.106718,151.14121 Z M 78.496956,176.01825 238.83626,251.76229 V 482.03827 L 78.496956,406.29424 Z m 343.003174,0 V 406.29424 L 261.16084,482.03827 V 251.76229 Z"
     id="path1"
     style="stroke-width:1.024" />
</svg>
