<?xml version="1.0" encoding="UTF-8" standalone="no"?>
<!-- Generator: Adobe Illustrator 24.1.0, SVG Export Plug-In . SVG Version: 6.00 Build 0)  -->

<svg
   version="1.1"
   id="Layer_1"
   x="0px"
   y="0px"
   viewBox="0 0 512 512"
   xml:space="preserve"
   sodipodi:docname="photoshop.svg"
   inkscape:version="1.4.2 (ebf0e940d0, 2025-05-08)"
   width="512"
   height="512"
   xmlns:inkscape="http://www.inkscape.org/namespaces/inkscape"
   xmlns:sodipodi="http://sodipodi.sourceforge.net/DTD/sodipodi-0.dtd"
   xmlns="http://www.w3.org/2000/svg"
   xmlns:svg="http://www.w3.org/2000/svg"><defs
   id="defs3" /><sodipodi:namedview
   id="namedview3"
   pagecolor="#ffffff"
   bordercolor="#000000"
   borderopacity="0.25"
   inkscape:showpageshadow="2"
   inkscape:pageopacity="0.0"
   inkscape:pagecheckerboard="0"
   inkscape:deskcolor="#d1d1d1"
   inkscape:zoom="0.91666796"
   inkscape:cx="53.45447"
   inkscape:cy="356.72677"
   inkscape:window-width="1908"
   inkscape:window-height="1028"
   inkscape:window-x="0"
   inkscape:window-y="0"
   inkscape:window-maximized="1"
   inkscape:current-layer="Layer_1" />
<style
   type="text/css"
   id="style1">
	.st0{fill:#001E36;}
	.st1{fill:#31A8FF;}
</style>
<g
   id="g3"
   inkscape:label="Photoshop"
   transform="matrix(2.1333333,0,0,2.1333333,4e-6,6.4000039)"><path
     class="st0"
     d="m 42.5,0 h 155 C 221,0 240,19 240,42.5 v 149 C 240,215 221,234 197.5,234 H 42.5 C 19,234 0,215 0,191.5 V 42.5 C 0,19 19,0 42.5,0 Z"
     id="path1"
     inkscape:label="Background" /><path
     id="path2"
     class="st1"
     d="m 86,59.5 c -3,0 -5.999609,-3.91e-4 -9.099609,0.09961 -3.1,0.1 -6.001172,0.101172 -8.701172,0.201172 -2.7,0.1 -5.19961,0.09922 -7.59961,0.199219 -2.3,0.1 -3.899609,0.09961 -5.599609,0.09961 -0.7,0 -1,0.39961 -1,1.09961 V 164.09961 c 0,0.9 0.399219,1.30078 1.199219,1.30078 h 19 0.40039 c 0.7,-0.1 1.19961,-0.70039 1.09961,-1.40039 V 131.90039 C 77.599219,131.90039 79,131.9 80,132 c 1,0.1 2.6,0.0996 5,0.0996 8.2,0 15.7,-0.90039 22.5,-3.40039 6.5,-2.4 12.09961,-6.59922 16.09961,-12.19922 4,-5.6 6,-12.70078 6,-21.300781 0,-4.5 -0.79883,-8.8 -2.29883,-13 -1.6,-4.3 -4.10078,-8.198438 -7.30078,-11.398438 -3.8,-3.7 -8.40039,-6.501172 -13.40039,-8.201172 C 100.99961,60.499609 94.2,59.5 86,59.5 Z m 0.699219,19.699219 c 4.1,-0.1 8.100781,0.5 11.800781,2 2.9,1.1 5.3,3.101172 7,5.701172 1.6,2.7 2.40078,5.80039 2.30078,8.90039 0,4.399999 -1.00156,7.798829 -3.10156,10.298829 -2.2,2.5 -4.99922,4.40078 -8.19922,5.30078 -3.7,1.2 -7.6,1.79883 -11.5,1.79883 h -5.300781 c -1.2,0 -2.498438,-0.0992 -3.898438,-0.19922 V 79.400391 c 0.7,-0.1 2.09961,-0.19961 4.09961,-0.09961 1.9,-0.1 4.198828,-0.101562 6.798828,-0.101562 z m 85.400391,5.101562 c -7.1,0 -12.99922,1.1 -17.69922,3.5 -4.3,2 -8,5.199219 -10.5,9.199219 -2.2,3.7 -3.40039,7.79961 -3.40039,12.09961 -0.1,3.5 0.70078,7.00117 2.30078,10.20117 1.9,3.4 4.49961,6.3 7.59961,8.5 4.4,3 9.09922,5.39922 14.19922,7.19922 4.9,1.9 8.20078,3.39922 9.80078,4.69922 1.6,1.3 2.40039,2.6 2.40039,4 0,1.8 -1.10117,3.50117 -2.70117,4.20117 -1.8,0.9 -4.49883,1.40039 -8.29883,1.40039 -4,0 -8.00078,-0.5 -11.80078,-1.5 -4.4,-1 -8.50039,-2.60039 -12.40039,-4.90039 -0.3,-0.2 -0.60039,-0.29961 -0.90039,-0.0996 -0.3,0.2 -0.39844,0.59844 -0.39844,0.89844 v 17.40039 c -0.1,0.8 0.39961,1.50039 1.09961,1.90039 3.2,1.5 6.69922,2.59922 10.19922,3.19922 4.5,0.9 8.99961,1.30078 13.59961,1.30078 7.2,0 13.20156,-1.09922 18.10156,-3.19922 4.5,-1.8 8.39922,-4.90039 11.19922,-8.90039 2.6,-3.9 4.00039,-8.60078 3.90039,-13.30078 0.1,-3.6 -0.70078,-7.09883 -2.30078,-10.29883 -1.9,-3.4 -4.60039,-6.20078 -7.90039,-8.30078 -4.8,-3 -9.99844,-5.50078 -15.39844,-7.30078 -2.4,-1 -4.80156,-2.09883 -7.10156,-3.29883 -1.3,-0.7 -2.49844,-1.60117 -3.39844,-2.70117 -0.6,-0.8 -1,-1.69961 -1,-2.59961 0,-0.9 0.29883,-1.89922 0.79883,-2.69922 0.7,-1 1.79961,-1.7 3.09961,-2 1.9,-0.5 4,-0.80117 6,-0.70117 3.8,0 7.50117,0.50078 11.20117,1.30078 3.4,0.7 6.59961,1.80039 9.59961,3.40039 0.4,0.2 0.90078,0.2 1.80078,0 0.3,-0.2 0.5,-0.6 0.5,-1 V 89.599609 c 0,-0.4 -0.10117,-0.799218 -0.20117,-1.199218 -0.2,-0.4 -0.6,-0.800391 -1,-0.900391 -2.7,-1.1 -5.59961,-1.900781 -8.59961,-2.300781 -4.1,-0.6 -8.30039,-0.898438 -12.40039,-0.898438 z"
     inkscape:label="Text" /></g>
</svg>
