<?xml version="1.0" encoding="UTF-8" standalone="no"?>
<!-- Created with Inkscape (http://www.inkscape.org/) -->

<svg
   width="126.83467mm"
   height="24.899647mm"
   viewBox="0 0 126.83467 24.899646"
   version="1.1"
   id="svg1"
   xml:space="preserve"
   inkscape:version="1.3.2 (091e20e, 2023-11-25)"
   sodipodi:docname="signature4.svg"
   xmlns:inkscape="http://www.inkscape.org/namespaces/inkscape"
   xmlns:sodipodi="http://sodipodi.sourceforge.net/DTD/sodipodi-0.dtd"
   xmlns="http://www.w3.org/2000/svg"
   xmlns:svg="http://www.w3.org/2000/svg"><sodipodi:namedview
     id="namedview1"
     pagecolor="#ffffff"
     bordercolor="#000000"
     borderopacity="0.25"
     inkscape:showpageshadow="2"
     inkscape:pageopacity="0.0"
     inkscape:pagecheckerboard="0"
     inkscape:deskcolor="#d1d1d1"
     inkscape:document-units="mm"
     inkscape:zoom="4.2843129"
     inkscape:cx="245.08014"
     inkscape:cy="71.07324"
     inkscape:window-width="2560"
     inkscape:window-height="1369"
     inkscape:window-x="0"
     inkscape:window-y="0"
     inkscape:window-maximized="1"
     inkscape:current-layer="layer1" /><defs
     id="defs1"><inkscape:path-effect
       effect="fillet_chamfer"
       id="path-effect3"
       is_visible="true"
       lpeversion="1"
       nodesatellites_param="F,0,0,1,0,0.52916667,0,1 @ F,0,0,1,0,0.52916667,0,1 @ F,0,0,1,0,0.52916667,0,1 @ F,0,0,1,0,0.52916667,0,1 @ F,0,0,1,0,0.52916667,0,1 @ F,0,0,1,0,0.52916667,0,1 @ F,0,0,1,0,0.52916667,0,1 @ F,0,0,1,0,0.52916667,0,1 @ F,0,0,1,0,0.52916667,0,1 @ F,0,0,1,0,0.52916667,0,1 @ F,0,0,1,0,0.52916667,0,1 @ F,0,0,1,0,0.52916667,0,1 @ F,0,0,1,0,0.52916667,0,1 @ F,0,0,1,0,0.52916667,0,1 @ F,0,0,1,0,0.52916667,0,1 @ F,0,0,1,0,0.52916667,0,1 @ F,0,0,1,0,0.52916667,0,1 @ F,0,0,1,0,0.52916667,0,1 @ F,0,0,1,0,0.52916667,0,1 @ F,0,0,1,0,0.52916667,0,1 @ F,0,0,1,0,0.52916667,0,1 @ F,0,0,1,0,0.52916667,0,1 @ F,0,0,1,0,0.52916667,0,1 @ F,0,0,1,0,0.52916667,0,1 @ F,0,0,1,0,0.52916667,0,1 @ F,0,0,1,0,0.52916667,0,1 @ F,0,0,1,0,0.52916667,0,1 @ F,0,0,1,0,0.52916667,0,1 @ F,0,0,1,0,0.52916667,0,1 @ F,0,0,1,0,0.52916667,0,1 @ F,0,0,1,0,0.52916667,0,1 @ F,0,0,1,0,0.52916667,0,1 @ F,0,0,1,0,0.52916667,0,1 @ F,0,0,1,0,0.52916667,0,1 @ F,0,0,1,0,0.52916667,0,1 @ F,0,0,1,0,0.52916667,0,1 @ F,0,0,1,0,0.52916667,0,1 @ F,0,0,1,0,0.52916667,0,1 @ F,0,0,1,0,0.52916667,0,1 @ F,0,0,1,0,0.52916667,0,1 @ F,0,0,1,0,0.52916667,0,1 @ F,0,0,1,0,0.52916667,0,1 @ F,0,0,1,0,0.52916667,0,1 @ F,0,0,1,0,0.52916667,0,1 @ F,0,0,1,0,0.52916667,0,1 @ F,0,0,1,0,0.52916667,0,1 @ F,0,0,1,0,0.52916667,0,1 @ F,0,0,1,0,0.52916667,0,1 @ F,0,0,1,0,0.52916667,0,1 @ F,0,0,1,0,0.52916667,0,1 @ F,0,0,1,0,0.52916667,0,1 @ F,0,0,1,0,0.52916667,0,1 @ F,0,0,1,0,0.52916667,0,1 @ F,0,0,1,0,0.52916667,0,1 @ F,0,0,1,0,0.52916667,0,1 @ F,0,0,1,0,0.52916667,0,1 @ F,0,0,1,0,0.52916667,0,1 @ F,0,0,1,0,0.52916667,0,1 @ F,0,0,1,0,0.52916667,0,1 @ F,0,0,1,0,0.52916667,0,1 @ F,0,0,1,0,0.52916667,0,1 @ F,0,0,1,0,0.52916667,0,1 @ F,0,0,1,0,0.52916667,0,1 @ F,0,0,1,0,0.52916667,0,1 @ F,0,0,1,0,0.52916667,0,1 @ F,0,0,1,0,0.52916667,0,1 @ F,0,0,1,0,0.52916667,0,1 @ F,0,0,1,0,0.52916667,0,1 @ F,0,0,1,0,0.52916667,0,1 @ F,0,0,1,0,0.52916667,0,1 @ F,0,0,1,0,0.52916667,0,1 @ F,0,0,1,0,0.52916667,0,1 @ F,0,0,1,0,0.52916667,0,1 @ F,0,0,1,0,0.52916667,0,1 @ F,0,0,1,0,0.52916667,0,1 @ F,0,0,1,0,0.52916667,0,1 @ F,0,0,1,0,0.52916667,0,1 @ F,0,0,1,0,0.52916667,0,1 @ F,0,0,1,0,0.52916667,0,1 @ F,0,0,1,0,0.52916667,0,1 @ F,0,0,1,0,0.52916667,0,1 @ F,0,0,1,0,0.52916667,0,1 @ F,0,0,1,0,0.52916667,0,1 @ F,0,0,1,0,0.52916667,0,1 @ F,0,0,1,0,0.52916667,0,1 @ F,0,0,1,0,0.52916667,0,1 @ F,0,0,1,0,0.52916667,0,1 @ F,0,0,1,0,0.52916667,0,1 @ F,0,0,1,0,0.52916667,0,1 @ F,0,0,1,0,0.52916667,0,1 @ F,0,0,1,0,0.52916667,0,1 @ F,0,0,1,0,0.52916667,0,1 @ F,0,0,1,0,0.52916667,0,1 @ F,0,0,1,0,0.52916667,0,1 @ F,0,0,1,0,0.52916667,0,1 @ F,0,0,1,0,0.52916667,0,1 @ F,0,0,1,0,0.52916667,0,1 @ F,0,0,1,0,0.52916667,0,1 @ F,0,0,1,0,0.52916667,0,1 @ F,0,0,1,0,0.52916667,0,1 @ F,0,0,1,0,0.52916667,0,1 @ F,0,0,1,0,0.52916667,0,1 @ F,0,0,1,0,0.52916667,0,1 @ F,0,0,1,0,0.52916667,0,1 @ F,0,0,1,0,0.52916667,0,1 @ F,0,0,1,0,0.52916667,0,1 @ F,0,0,1,0,0.52916667,0,1 @ F,0,0,1,0,0.52916667,0,1 @ F,0,0,1,0,0.52916667,0,1 @ F,0,0,1,0,0.52916667,0,1 @ F,0,0,1,0,0.52916667,0,1 @ F,0,0,1,0,0.52916667,0,1 @ F,0,0,1,0,0.52916667,0,1 @ F,0,0,1,0,0.52916667,0,1 @ F,0,0,1,0,0.52916667,0,1 @ F,0,0,1,0,0.52916667,0,1 @ F,0,0,1,0,0.52916667,0,1 @ F,0,0,1,0,0.52916667,0,1 @ F,0,0,1,0,0.52916667,0,1 @ F,0,0,1,0,0.52916667,0,1 @ F,0,0,1,0,0.52916667,0,1 @ F,0,0,1,0,0.52916667,0,1 @ F,0,0,1,0,0.52916667,0,1 @ F,0,0,1,0,0.52916667,0,1 @ F,0,0,1,0,0.52916667,0,1 @ F,0,0,1,0,0.52916667,0,1 @ F,0,0,1,0,0.52916667,0,1 @ F,0,0,1,0,0.52916667,0,1 @ F,0,0,1,0,0.52916667,0,1 @ F,0,0,1,0,0.52916667,0,1 @ F,0,0,1,0,0.52916667,0,1 @ F,0,0,1,0,0.52916667,0,1 @ F,0,0,1,0,0.52916667,0,1 @ F,0,0,1,0,0.52916667,0,1 @ F,0,0,1,0,0.52916667,0,1 @ F,0,0,1,0,0.52916667,0,1 @ F,0,0,1,0,0.52916667,0,1 @ F,0,0,1,0,0.52916667,0,1 @ F,0,0,1,0,0.52916667,0,1 @ F,0,0,1,0,0.52916667,0,1 @ F,0,0,1,0,0.52916667,0,1 @ F,0,0,1,0,0.52916667,0,1 @ F,0,0,1,0,0.52916667,0,1 @ F,0,0,1,0,0.52916667,0,1 @ F,0,0,1,0,0.52916667,0,1 @ F,0,0,1,0,0.52916667,0,1 @ F,0,0,1,0,0.52916667,0,1 @ F,0,0,1,0,0.52916667,0,1 @ F,0,0,1,0,0.52916667,0,1 @ F,0,0,1,0,0.52916667,0,1 @ F,0,0,1,0,0.52916667,0,1 @ F,0,0,1,0,0.52916667,0,1 @ F,0,0,1,0,0.52916667,0,1 @ F,0,0,1,0,0.52916667,0,1 @ F,0,0,1,0,0.52916667,0,1 @ F,0,0,1,0,0.52916667,0,1 @ F,0,0,1,0,0.52916667,0,1 @ F,0,0,1,0,0.52916667,0,1 @ F,0,0,1,0,0.52916667,0,1 @ F,0,0,1,0,0.52916667,0,1 @ F,0,0,1,0,0.52916667,0,1 @ F,0,0,1,0,0.52916667,0,1 @ F,0,0,1,0,0.52916667,0,1 @ F,0,0,1,0,0.52916667,0,1 @ F,0,0,1,0,0.52916667,0,1 @ F,0,0,1,0,0.52916667,0,1 @ F,0,0,1,0,0.52916667,0,1 @ F,0,0,1,0,0.52916667,0,1 @ F,0,0,1,0,0.52916667,0,1 @ F,0,0,1,0,0.52916667,0,1 @ F,0,0,1,0,0.52916667,0,1 @ F,0,0,1,0,0.52916667,0,1 @ F,0,0,1,0,0.52916667,0,1 @ F,0,0,1,0,0.52916667,0,1 @ F,0,0,1,0,0.52916667,0,1 @ F,0,0,1,0,0.52916667,0,1 @ F,0,0,1,0,0.52916667,0,1 @ F,0,0,1,0,0.52916667,0,1 @ F,0,0,1,0,0.52916667,0,1 @ F,0,0,1,0,0.52916667,0,1 @ F,0,0,1,0,0.52916667,0,1 @ F,0,0,1,0,0.52916667,0,1 @ F,0,0,1,0,0.52916667,0,1 @ F,0,0,1,0,0.52916667,0,1 @ F,0,0,1,0,0.52916667,0,1 @ F,0,0,1,0,0.52916667,0,1 @ F,0,0,1,0,0.52916667,0,1 @ F,0,0,1,0,0.52916667,0,1 @ F,0,0,1,0,0.52916667,0,1 @ F,0,0,1,0,0.52916667,0,1 @ F,0,0,1,0,0.52916667,0,1 @ F,0,0,1,0,0.52916667,0,1 @ F,0,0,1,0,0.52916667,0,1 @ F,0,0,1,0,0.52916667,0,1 @ F,0,0,1,0,0.52916667,0,1 @ F,0,0,1,0,0.52916667,0,1 @ F,0,0,1,0,0.52916667,0,1 @ F,0,0,1,0,0.52916667,0,1 @ F,0,0,1,0,0.52916667,0,1 @ F,0,0,1,0,0.52916667,0,1 @ F,0,0,1,0,0.52916667,0,1 @ F,0,0,1,0,0.52916667,0,1 @ F,0,0,1,0,0.52916667,0,1 @ F,0,0,1,0,0.52916667,0,1 @ F,0,0,1,0,0.52916667,0,1 @ F,0,0,1,0,0.52916667,0,1 @ F,0,0,1,0,0.52916667,0,1 @ F,0,0,1,0,0.52916667,0,1 @ F,0,0,1,0,0.52916667,0,1 @ F,0,0,1,0,0.52916667,0,1 @ F,0,0,1,0,0.52916667,0,1 @ F,0,0,1,0,0.52916667,0,1 @ F,0,0,1,0,0.52916667,0,1 @ F,0,0,1,0,0.52916667,0,1 @ F,0,0,1,0,0.52916667,0,1 @ F,0,0,1,0,0.52916667,0,1 @ F,0,0,1,0,0.52916667,0,1 @ F,0,0,1,0,0.52916667,0,1 @ F,0,0,1,0,0.52916667,0,1 @ F,0,0,1,0,0.52916667,0,1 @ F,0,0,1,0,0.52916667,0,1 @ F,0,0,1,0,0.52916667,0,1 @ F,0,0,1,0,0.52916667,0,1 @ F,0,0,1,0,0.52916667,0,1 @ F,0,0,1,0,0.52916667,0,1 @ F,0,0,1,0,0.52916667,0,1 @ F,0,0,1,0,0.52916667,0,1 @ F,0,0,1,0,0.52916667,0,1 @ F,0,0,1,0,0.52916667,0,1 @ F,0,0,1,0,0.52916667,0,1 @ F,0,0,1,0,0.52916667,0,1 @ F,0,0,1,0,0.52916667,0,1 @ F,0,0,1,0,0.52916667,0,1 @ F,0,0,1,0,0.52916667,0,1 @ F,0,0,1,0,0.52916667,0,1 @ F,0,0,1,0,0.52916667,0,1 @ F,0,0,1,0,0.52916667,0,1 @ F,0,0,1,0,0.52916667,0,1 @ F,0,0,1,0,0.52916667,0,1 @ F,0,0,1,0,0.52916667,0,1 @ F,0,0,1,0,0.52916667,0,1 @ F,0,0,1,0,0.52916667,0,1 @ F,0,0,1,0,0.52916667,0,1 @ F,0,0,1,0,0.52916667,0,1 @ F,0,0,1,0,0.52916667,0,1 @ F,0,0,1,0,0.52916667,0,1 @ F,0,0,1,0,0.52916667,0,1 @ F,0,0,1,0,0.52916667,0,1 @ F,0,0,1,0,0.52916667,0,1 @ F,0,0,1,0,0.52916667,0,1 @ F,0,0,1,0,0.52916667,0,1 @ F,0,0,1,0,0.52916667,0,1 @ F,0,0,1,0,0.52916667,0,1 @ F,0,0,1,0,0.52916667,0,1 @ F,0,0,1,0,0.52916667,0,1 @ F,0,0,1,0,0.52916667,0,1 @ F,0,0,1,0,0.52916667,0,1 @ F,0,0,1,0,0.52916667,0,1 @ F,0,0,1,0,0.52916667,0,1 @ F,0,0,1,0,0.52916667,0,1 @ F,0,0,1,0,0.52916667,0,1 @ F,0,0,1,0,0.52916667,0,1 @ F,0,0,1,0,0.52916667,0,1 @ F,0,0,1,0,0.52916667,0,1 @ F,0,0,1,0,0.52916667,0,1 @ F,0,0,1,0,0.52916667,0,1 @ F,0,0,1,0,0.52916667,0,1 @ F,0,0,1,0,0.52916667,0,1"
       radius="2"
       unit="px"
       method="auto"
       mode="F"
       chamfer_steps="1"
       flexible="false"
       use_knot_distance="true"
       apply_no_radius="true"
       apply_with_radius="true"
       only_selected="false"
       hide_knots="false" /></defs><g
     inkscape:label="Layer 1"
     inkscape:groupmode="layer"
     id="layer1"
     transform="translate(-40.547788,-123.38432)"><path
       id="rect1"
       style="fill:#6186ff;fill-opacity:1;stroke-width:0.264999"
       d="M 89.481235 123.39621 L 89.428009 123.39724 C 89.135834 123.40392 88.820109 123.63308 88.725209 123.90935 C 88.629603 124.18767 88.509504 124.54195 88.404815 124.86537 C 88.314814 125.14341 88.182186 125.59847 88.109226 125.88133 C 88.057319 126.08257 88.005078 126.29314 87.960398 126.47612 C 87.891066 126.75984 87.624961 126.88854 87.360434 126.76913 C 87.008989 126.61049 86.518459 126.3991 86.082476 126.24926 C 85.806234 126.15432 85.342809 126.04897 85.052565 126.01827 C 84.528192 125.96237 83.994536 125.97818 83.463515 125.96918 C 83.171337 125.96438 82.69828 125.93286 82.406732 125.91336 C 81.101292 125.82583 79.795443 125.73728 78.492759 125.61674 C 78.201752 125.58979 77.73054 125.54319 77.440627 125.51029 C 76.304553 125.38127 75.173673 125.20813 74.037733 125.07776 C 73.747393 125.04447 73.275726 124.99702 72.986118 124.95942 C 71.856712 124.81278 70.722778 124.58802 69.594594 124.62662 C 69.302592 124.6366 68.831183 124.69021 68.544529 124.74651 C 67.866937 124.87968 67.205521 125.11316 66.569972 125.39195 C 66.302355 125.50935 65.874757 125.71439 65.625327 125.86582 C 65.07044 126.2027 64.563713 126.62327 64.026975 126.99392 C 63.786535 127.15995 63.380404 127.40277 63.126772 127.54634 C 62.195213 128.07365 61.229671 128.54135 60.282501 129.04134 C 60.024051 129.17777 59.608357 129.40542 59.352842 129.54725 C 58.958931 129.76589 58.507773 130.01881 58.17927 130.20354 C 57.924537 130.34679 57.666131 130.23196 57.602561 129.94671 C 57.500492 129.48872 57.349124 128.80612 57.224806 128.23725 C 57.162411 127.95174 57.063244 127.48868 57.003114 127.20269 C 56.861044 126.52695 56.687733 125.68858 56.578851 125.15889 C 56.520007 124.87262 56.320211 124.66645 56.13185 124.69845 C 55.843739 124.74747 55.532895 125.0111 55.436285 125.28653 C 55.172201 126.03945 54.655958 127.48839 54.236358 128.53336 C 54.12746 128.80456 53.940803 129.23989 53.819846 129.50539 C 53.246934 130.76297 52.355392 132.51395 51.929005 133.34237 C 51.795243 133.60226 51.457266 133.86743 51.176597 133.93923 C 50.45184 134.12473 49.103677 134.48824 48.138022 134.85907 C 47.86525 134.96382 47.434402 135.16261 47.174257 135.29574 C 46.345743 135.71973 45.555417 136.22752 44.823496 136.80262 C 44.593709 136.98317 44.231683 137.28944 44.015277 137.48578 C 43.411529 138.03364 42.849946 138.63481 42.369382 139.29136 C 42.196789 139.52716 41.937744 139.92471 41.789573 140.17658 C 41.417064 140.80977 41.104107 141.4844 40.886785 142.18421 C 40.800128 142.46325 40.690079 142.92465 40.643389 143.21308 C 40.554409 143.76276 40.527001 144.32613 40.563291 144.88172 C 40.582335 145.17328 40.646152 145.64305 40.694032 145.93126 C 40.755672 146.30232 40.842021 146.67427 41.003574 146.99787 C 41.133649 147.25842 41.462204 147.61039 41.698105 147.78231 C 42.02636 148.02155 42.414389 148.20055 42.805015 148.26135 C 43.092654 148.30614 43.491054 148.24412 43.655092 148.14922 C 43.897564 148.00891 43.95955 147.47486 43.762062 147.27175 C 43.525109 147.02805 43.12354 146.85012 42.816383 146.61701 C 42.585725 146.44195 42.358508 146.01375 42.275848 145.73386 C 42.128786 145.23588 42.090747 144.69843 42.093947 144.1691 C 42.095697 143.87687 42.116768 143.40296 42.151308 143.11283 C 42.211302 142.60884 42.325287 142.10855 42.491339 141.6292 C 42.586976 141.35312 42.777362 140.91796 42.914052 140.65975 C 43.240584 140.04292 43.654535 139.46869 44.107777 138.93428 C 44.296792 138.7114 44.616932 138.36165 44.821429 138.15293 C 45.318652 137.64543 45.859188 137.17236 46.453371 136.78919 C 46.698914 136.63085 47.117542 136.40723 47.386647 136.29413 C 48.394532 135.87052 49.851624 135.50675 50.618491 135.32984 C 50.903291 135.26414 51.048891 135.43395 50.936301 135.70088 C 50.739068 136.16848 50.422217 136.88442 50.110512 137.44031 C 49.967632 137.69511 49.69514 138.08142 49.504864 138.29969 C 49.085071 138.78123 48.513608 139.32279 48.136989 139.66756 C 47.921412 139.86491 47.885629 140.16714 48.061024 140.34763 C 48.2647 140.55723 48.626924 140.59628 48.864076 140.42617 C 49.136269 140.23093 49.48925 139.96558 49.780816 139.7058 C 49.998829 139.51155 50.306191 139.14868 50.468113 138.90585 C 50.8767 138.2931 51.169787 137.60141 51.47787 136.92406 C 51.598867 136.65805 51.804191 136.23079 51.921771 135.9634 C 51.994543 135.79791 52.067991 135.62644 52.132611 135.47402 C 52.246695 135.20494 52.520523 134.83712 52.750661 134.65805 C 52.984636 134.47599 53.28558 134.24736 53.565598 134.05034 C 53.804561 133.8822 54.210749 133.6386 54.468902 133.50412 C 55.186723 133.13016 56.137575 132.71232 56.704941 132.46955 C 56.973652 132.35457 57.242218 132.49528 57.302838 132.78116 C 57.368649 133.09154 57.45373 133.49549 57.52763 133.8581 C 57.585987 134.14447 57.675474 134.60952 57.726584 134.8968 C 57.904998 135.89968 58.051181 136.90825 58.240248 137.90901 C 58.2945 138.19618 58.391532 138.66038 58.456772 138.94513 C 58.556622 139.38091 58.677987 139.87921 58.767864 140.24272 C 58.838014 140.52643 59.125932 140.81258 59.409686 140.88248 L 59.577634 140.92433 C 59.861383 140.99428 60.021132 140.82469 59.937302 140.54503 C 59.8109 140.12337 59.631332 139.50927 59.495469 138.98699 C 59.421902 138.70417 59.319766 138.24269 59.269126 137.95656 C 59.133044 137.18768 59.053713 136.40796 58.928578 135.6368 C 58.881769 135.34834 58.78976 134.88387 58.72704 134.59862 C 58.561216 133.84443 58.327959 132.89376 58.184438 132.31866 C 58.113667 132.03508 58.253496 131.67625 58.49863 131.51716 C 59.136437 131.10322 60.33403 130.32779 61.226112 129.75912 C 61.47255 129.60202 61.87268 129.34961 62.118048 129.19172 C 62.78335 128.76362 63.444011 128.32699 64.128261 127.93133 C 64.381252 127.78505 64.797309 127.561 65.052752 127.42232 C 65.735866 127.05145 66.425661 126.68349 67.151332 126.41669 C 67.425574 126.31586 67.881472 126.18382 68.166257 126.11852 C 68.944555 125.9399 69.746908 125.85496 70.54699 125.82086 C 70.838967 125.80845 71.311002 125.79998 71.60119 125.80898 C 72.595614 125.84013 73.585994 125.99539 74.575685 126.12369 C 74.865508 126.16128 75.335564 126.21538 75.624717 126.25288 C 76.794808 126.40471 77.959177 126.60483 79.130446 126.74587 C 79.420597 126.78087 79.890053 126.82901 80.179477 126.84561 C 80.753647 126.87851 81.33102 126.88101 81.90237 126.93501 C 82.193264 126.9625 82.659931 127.04001 82.944683 127.09831 C 84.326907 127.38134 86.265861 127.94565 87.173883 128.21762 C 87.453884 128.30148 87.657685 128.60547 87.623468 128.89354 C 87.566384 129.3741 87.468266 130.09901 87.336663 130.68672 C 87.272827 130.9718 87.126348 131.42295 87.023504 131.69647 C 86.733421 132.46798 86.366467 133.21724 85.910911 133.90202 C 85.749059 134.14531 85.463698 134.52446 85.266505 134.7397 C 84.785211 135.26504 84.214068 135.7104 83.661952 136.1701 C 83.437366 136.35709 83.081626 136.66944 82.858384 136.85792 C 82.597172 137.07844 82.306565 137.31864 82.07807 137.50646 C 81.852296 137.69204 81.785268 137.63462 81.901853 137.36693 C 81.981702 137.18359 82.063516 136.96841 82.113726 136.76076 C 82.18183 136.47909 82.094091 135.99872 81.94061 135.75152 C 81.784232 135.49965 81.56385 135.27683 81.317909 135.09833 C 81.081766 134.92695 80.639461 134.72913 80.349493 134.71593 C 79.954707 134.69798 79.533119 134.79863 79.126829 134.81153 C 78.835818 134.82077 78.374781 134.68949 78.116038 134.55573 C 77.944717 134.46716 77.770866 134.36543 77.620461 134.27203 C 77.372083 134.11786 77.364255 133.8347 77.593072 133.65294 C 77.884724 133.42125 78.282907 133.10343 78.628151 132.82354 C 78.855169 132.6395 79.219319 132.33634 79.441538 132.14658 C 79.747962 131.88492 80.091532 131.58714 80.349493 131.36264 C 80.569945 131.17078 80.698907 130.79031 80.637847 130.5136 C 80.574867 130.22822 80.28768 130.01069 79.997576 130.04179 C 79.738206 130.06961 79.41979 130.11239 79.131996 130.17409 C 78.846643 130.23527 78.406124 130.41521 78.153245 130.56114 C 77.640563 130.85699 77.177095 131.24596 76.73731 131.65203 C 76.522597 131.85029 76.180349 132.17815 75.986452 132.39617 C 75.435101 133.0161 74.982238 133.72611 74.453729 134.36866 C 74.268109 134.59432 73.944646 134.94005 73.744211 135.15156 C 73.359097 135.55795 72.963706 135.95742 72.531365 136.30911 C 72.304709 136.49348 71.926885 136.778 71.700408 136.96127 C 71.644048 137.00687 71.587403 137.04984 71.530393 137.08684 C 71.298134 137.23756 70.802825 137.01775 70.745945 136.74216 C 70.680496 136.42508 70.768197 136.00942 70.827077 135.61872 C 70.870567 135.3301 70.868181 134.85495 70.901491 134.56503 C 70.939521 134.23401 70.999225 133.90127 70.995025 133.5775 C 70.991215 133.28638 70.856613 132.82494 70.733542 132.5605 C 70.697974 132.48408 70.65833 132.41083 70.61417 132.34553 C 70.457808 132.11438 69.915231 132.12155 69.765643 132.35742 C 69.668865 132.51002 69.598362 132.70756 69.534132 132.90519 C 69.443839 133.18303 69.266031 133.62423 69.207021 133.90978 C 69.089519 134.47842 69.097776 135.10082 68.900579 135.62027 C 68.797318 135.89228 68.491465 136.26592 68.265993 136.45122 C 67.971493 136.69326 67.620037 136.88284 67.257786 136.96954 C 66.974641 137.0373 66.489446 137.0048 66.22219 136.88996 C 66.007443 136.79769 65.805416 136.66155 65.638246 136.49721 C 65.430735 136.29321 65.210469 135.85604 65.190212 135.56704 C 65.16608 135.2228 65.244709 134.85523 65.316819 134.49372 C 65.373969 134.20721 65.432513 133.737 65.480633 133.44934 C 65.549657 133.03673 65.643241 132.57044 65.715761 132.22409 C 65.775684 131.93789 65.687373 131.56855 65.514739 131.3983 C 65.306655 131.19312 65.011986 131.22579 64.869301 131.4784 C 64.787825 131.62265 64.699147 131.78681 64.620737 131.94917 C 64.493798 132.21201 64.359717 132.66883 64.318947 132.9579 C 64.255847 133.40555 64.254436 133.86452 64.260036 134.32112 C 64.263606 134.61334 64.264052 135.087 64.242982 135.3779 C 64.216035 135.74985 64.183647 136.12816 64.248667 136.47344 C 64.302422 136.75893 64.561611 137.17327 64.787135 137.35711 C 65.009282 137.53819 65.277878 137.67492 65.556081 137.77362 C 65.831264 137.87124 66.30127 137.96246 66.59271 137.95346 C 66.860353 137.94535 67.130149 137.89773 67.392144 137.82633 C 67.673983 137.74951 68.111419 137.56614 68.352292 137.4062 C 68.476976 137.32341 68.600837 137.23294 68.71196 137.14834 C 68.944419 136.97129 69.168133 137.04978 69.256113 137.32817 C 69.275023 137.38802 69.295972 137.44957 69.318642 137.51007 C 69.42054 137.78222 69.729246 138.15122 69.967698 138.31933 C 70.141042 138.44154 70.331616 138.54248 70.528387 138.60458 C 70.805255 138.69203 71.290502 138.65138 71.562432 138.54929 C 72.290691 138.27589 72.881479 137.60605 73.479628 137.02483 C 73.689191 136.8212 74.047833 136.51168 74.257358 136.30911 C 74.664748 135.91525 75.128905 135.42031 75.439715 135.0818 C 75.637384 134.86654 75.862523 134.88632 75.979217 135.1128 C 76.112033 135.37057 76.485709 135.67998 76.763665 135.76548 C 77.021512 135.84481 77.301732 135.8758 77.581186 135.8957 C 77.872683 135.9165 78.349193 135.94295 78.634352 135.88485 C 79.036108 135.80293 79.448016 135.64731 79.818776 135.65231 C 80.106858 135.65594 80.528756 135.93844 80.655934 136.19801 C 80.725187 136.33934 80.771267 136.49744 80.795977 136.65793 C 80.840284 136.94568 80.768255 137.42479 80.644565 137.68784 C 80.407904 138.19114 79.964983 138.61524 79.547991 139.03298 C 79.341547 139.23979 79.018839 139.58663 78.801267 139.78074 C 78.748152 139.82809 78.694927 139.87504 78.643137 139.91974 C 78.421808 140.1107 78.289643 140.33064 78.354783 140.41894 C 78.528227 140.65415 78.893792 140.77395 79.168686 140.67835 C 79.398885 140.59827 79.677036 140.49666 79.930914 140.39103 C 80.200609 140.27882 80.616188 140.05217 80.857472 139.88977 C 81.295139 139.59518 81.702808 139.25345 82.108042 138.91154 L 82.107525 138.90999 C 82.330891 138.72153 82.695423 138.41916 82.916778 138.22889 C 83.940592 137.34888 85.342236 136.05097 86.01168 135.42648 C 86.225411 135.22709 86.408724 135.30092 86.424574 135.59236 C 86.450391 136.06719 86.494278 136.77843 86.551698 137.36693 C 86.580075 137.65778 86.642755 138.12745 86.657635 138.41854 C 86.682595 138.90687 86.685561 139.41326 86.844187 139.8412 C 86.945213 140.11375 87.266008 140.48373 87.522182 140.62099 C 87.729579 140.73212 87.965193 140.80477 88.203794 140.84527 C 88.491519 140.89417 88.971409 140.88396 89.252825 140.80806 C 89.540138 140.73062 89.818425 140.60115 90.082232 140.44995 C 90.335713 140.30464 90.724087 140.0309 90.934893 139.82983 C 91.228093 139.55017 91.531438 139.20159 91.752414 138.93428 C 91.938698 138.7089 92.198986 138.72696 92.368398 138.96476 C 92.49197 139.13823 92.645997 139.33244 92.810748 139.48876 C 93.02069 139.68796 93.486247 139.83991 93.776064 139.82001 C 94.281174 139.78527 94.792199 139.54121 95.27158 139.28567 C 95.529473 139.14823 95.947502 138.92473 96.182118 138.75289 C 96.421067 138.57788 96.643706 138.37794 96.85908 138.17101 C 97.069814 137.96853 97.402838 137.63211 97.596502 137.41447 C 98.012799 136.94665 98.48909 136.34887 98.796429 135.95461 C 98.97612 135.72411 99.119055 135.77193 99.11889 136.06417 C 99.11859 136.58632 99.118206 137.40014 99.116306 138.06198 C 99.115506 138.35423 99.112722 138.82821 99.110622 139.12031 C 99.107702 139.52207 99.103903 139.97548 99.100803 140.31662 C 99.098141 140.609 99.286633 140.89959 99.521966 140.96619 C 99.803176 141.04576 100.19811 140.94336 100.39892 140.7321 C 100.55971 140.56291 100.75026 140.35697 100.92188 140.15849 C 101.11297 139.93749 101.38853 139.55239 101.53786 139.30273 C 101.80094 138.86289 102.08032 138.32787 102.27115 137.95087 C 102.40321 137.68999 102.51082 137.71339 102.53212 138.00462 C 102.55581 138.32894 102.60113 138.75028 102.68663 139.11359 C 102.75342 139.39744 102.97716 139.82109 103.18014 140.02982 C 103.26632 140.11845 103.35836 140.2044 103.44576 140.282 C 103.66427 140.47594 104.05868 140.49799 104.31082 140.35021 L 105.195 139.83189 C 105.44716 139.68414 105.45042 139.43917 105.21413 139.2681 C 105.10056 139.18592 104.97805 139.09257 104.86324 138.99577 C 104.64034 138.80781 104.35851 138.41886 104.27361 138.14104 C 104.24221 138.0384 104.21553 137.93371 104.18783 137.82892 C 104.11317 137.54687 103.93166 137.10785 103.81318 136.84086 C 103.79288 136.79497 103.7718 136.74979 103.7491 136.70599 C 103.61623 136.44968 103.2102 136.17309 102.93106 136.08949 C 102.69742 136.01939 102.44759 135.98917 102.20862 136.00887 C 101.91903 136.03272 101.48601 136.26247 101.30532 136.48895 C 101.09128 136.75722 100.9094 137.11183 100.78184 137.3969 C 100.66249 137.66355 100.60149 137.65147 100.61389 137.35969 C 100.63769 136.80012 100.65395 135.90144 100.56325 135.19704 C 100.52597 134.90741 100.41722 134.44505 100.32192 134.16919 C 100.30202 134.1115 100.27974 134.05528 100.25474 134.00228 C 100.13406 133.74611 99.633383 133.58308 99.380373 133.71289 C 99.225651 133.79228 99.07552 133.91262 98.930271 134.03845 C 98.709416 134.22977 98.339348 134.52629 98.13187 134.73091 C 97.653758 135.20245 97.261497 135.76872 96.792934 136.25227 C 96.589667 136.46204 96.225102 136.76429 96.022438 136.97212 C 95.437119 137.57238 94.803379 138.37959 94.171905 138.46609 C 93.887981 138.50498 93.429232 138.20064 93.413812 137.92193 C 93.395187 137.58519 93.571754 137.14502 93.691314 136.73389 C 93.772747 136.45386 93.806922 135.97935 93.821022 135.68744 C 93.839102 135.31329 93.858428 134.89526 93.872698 134.57485 C 93.8857 134.28289 93.738148 133.93407 93.544036 133.79557 C 93.306141 133.62582 93.066967 133.71989 93.002467 134.00434 C 92.871005 134.58408 92.634308 135.53751 92.355478 136.25279 C 92.249391 136.5249 92.029798 136.94565 91.876438 137.19433 C 91.599136 137.64399 91.272732 138.06938 90.889935 138.42785 C 90.676742 138.62749 90.2946 138.9087 90.062078 139.08465 C 89.629343 139.41209 89.141239 139.75352 88.690586 139.79262 C 88.404452 139.81742 87.960518 139.55449 87.826039 139.30066 C 87.523543 138.72968 87.706875 137.83265 87.809503 137.05067 C 87.847523 136.76099 87.871546 136.28726 87.898386 135.99647 C 88.040193 134.46045 88.462835 132.95518 88.845098 131.45411 C 88.917221 131.1709 89.031122 130.71107 89.109682 130.42988 C 89.242077 129.95602 89.408193 129.40682 89.528261 129.01808 C 89.614511 128.73883 89.922512 128.50467 90.214007 128.49667 C 90.84477 128.47997 91.919392 128.45868 92.753387 128.48478 C 93.045475 128.49388 93.518362 128.52729 93.808103 128.56126 C 95.220236 128.72694 96.60904 129.11264 98.022833 129.25115 C 98.313659 129.27965 98.786672 129.30306 99.078582 129.31006 C 101.39914 129.36853 103.72021 129.07821 106.04043 128.93179 C 106.3321 128.91339 106.80335 128.88889 107.09205 128.86719 C 108.16771 128.78646 109.24237 128.64716 110.31821 128.64756 C 110.61043 128.64766 111.08358 128.67079 111.37447 128.69459 C 113.50589 128.86898 116.74562 129.48418 117.99732 129.73174 C 118.28403 129.78844 118.53161 130.07212 118.54871 130.36322 C 118.5966 131.18041 118.68049 132.78006 118.68049 133.9444 C 118.68049 134.23664 118.66605 134.70969 118.64845 135.00067 C 118.57269 136.25526 118.37199 138.00033 118.26759 138.86245 C 118.23245 139.15259 118.43884 139.40127 118.73061 139.41797 L 118.93628 139.42934 C 119.22805 139.44608 119.48746 139.22405 119.51506 138.93324 C 119.59243 138.11733 119.73922 136.52036 119.81892 135.35672 C 119.83892 135.06515 119.86511 134.59226 119.87731 134.30045 C 119.93071 133.02064 119.96115 131.22707 119.97395 130.3472 C 119.9782 130.05494 120.21648 129.79111 120.50621 129.75551 C 121.10805 129.68164 122.11236 129.55278 122.89625 129.42426 C 123.18464 129.37697 123.64899 129.28654 123.93391 129.22634 C 125.79323 128.83349 127.62038 128.29599 129.46174 127.82229 C 129.74477 127.74948 130.20331 127.63534 130.48442 127.56184 C 132.02651 127.15878 133.55426 126.68887 135.11618 126.38 C 135.40287 126.3233 135.87022 126.24305 136.15746 126.19035 C 137.78418 125.89215 139.4385 125.53283 141.0724 125.64775 C 141.36388 125.66826 141.83419 125.73254 142.11782 125.80174 C 142.98974 126.01456 143.81154 126.4352 144.62929 126.83269 C 144.89213 126.96045 145.32191 127.15988 145.5853 127.28641 C 146.57693 127.76278 147.55019 128.28268 148.48384 128.86357 C 148.73198 129.01796 149.12669 129.27581 149.36285 129.44338 C 150.28598 130.09839 151.13592 130.85594 152.03297 131.54868 C 152.26427 131.7273 152.64676 132.00679 152.88253 132.17913 C 153.44851 132.59285 154.01705 133.00413 154.60543 133.38423 C 154.85091 133.54281 155.25703 133.78703 155.51235 133.92838 C 156.07712 134.24103 156.78227 134.59897 157.24041 134.82755 C 157.50194 134.95804 157.74231 135.29622 157.77061 135.58564 C 157.81856 136.07547 157.88198 136.82157 157.88998 137.43669 C 157.89398 137.72884 157.86821 138.20238 157.85071 138.49399 C 157.8319 138.80812 157.80191 139.12327 157.71841 139.41693 C 157.63875 139.69715 157.38883 140.10648 157.20527 140.33367 C 156.84953 140.77398 156.39216 141.1562 155.8839 141.38064 C 155.61703 141.49848 155.1468 141.59876 154.85554 141.58476 C 154.63842 141.57434 154.42007 141.53065 154.2256 141.44885 C 153.95837 141.33649 153.62388 140.96397 153.56518 140.68146 C 153.47748 140.25924 153.58006 139.75178 153.55846 139.28671 C 153.54495 138.99617 153.38168 138.54378 153.24479 138.28574 C 153.21197 138.22396 153.17693 138.16439 153.13833 138.10849 C 152.97503 137.87197 152.48716 137.74752 152.23968 137.88473 C 152.16961 137.92359 152.09917 137.96578 152.02987 138.00358 C 151.78519 138.13706 151.30871 137.92936 151.24181 137.65373 C 151.16201 137.32296 151.21482 136.89213 151.15912 136.52615 C 151.11581 136.24125 150.80438 135.85814 150.55761 135.70346 C 150.38684 135.59643 150.19775 135.51389 150.00364 135.46369 C 149.72195 135.39079 149.23724 135.42643 148.96546 135.53087 C 148.56087 135.68635 148.19157 135.97102 147.85442 136.27552 C 147.63755 136.47139 147.30202 136.80693 147.12888 137.04137 C 146.87013 137.39174 146.61333 137.82424 146.4328 138.14673 C 146.29007 138.40216 146.29186 138.40344 146.41574 138.13897 C 146.57789 137.79282 146.78679 137.31014 146.91391 136.87755 C 146.99617 136.59756 147.04726 136.12427 147.04826 135.83214 C 147.05046 135.32619 146.98514 134.81039 146.8121 134.34437 C 146.71051 134.07079 146.46519 133.65955 146.27053 133.4421 C 146.11911 133.27294 145.94497 133.12225 145.75429 133.01216 C 145.50282 132.86698 145.02003 132.80032 144.73058 132.83542 C 144.18224 132.90183 143.63498 133.16492 143.18597 133.51342 C 142.9553 133.69246 142.62444 134.03604 142.45836 134.27616 C 142.02451 134.90343 141.78325 135.68534 141.67908 136.45639 C 141.63998 136.74594 141.61745 137.22115 141.65635 137.51007 C 141.74176 138.1442 141.98503 138.90659 142.15761 139.39471 C 142.25502 139.67026 142.12965 139.99451 141.8553 140.09441 C 141.67185 140.1612 141.45792 140.22781 141.25327 140.26391 C 140.96808 140.31423 140.49567 140.19036 140.2585 140.02155 C 139.90862 139.77252 139.62698 139.3996 139.40584 139.00766 C 139.26228 138.75323 139.06916 138.3177 138.99656 138.03511 C 138.84039 137.42715 138.84292 136.77249 138.85652 136.1298 C 138.86272 135.83761 138.86956 135.36439 138.89166 135.07405 C 138.93948 134.44601 139.04914 133.82174 139.15831 133.19922 C 139.20879 132.91139 139.28806 132.44446 139.34486 132.15794 C 139.4014 131.87297 139.46624 131.5656 139.52004 131.31562 C 139.58156 131.0299 139.40203 130.7483 139.11645 130.6862 L 138.6002 130.57406 C 138.31462 130.51194 138.08581 130.69761 138.08602 130.98902 C 138.08642 131.58319 138.07803 132.5667 138.02763 133.33927 C 138.00859 133.63087 137.95505 134.102 137.91445 134.3914 C 137.77999 135.3492 137.58368 136.3001 137.33206 137.23412 C 137.25604 137.5163 137.12349 137.97094 137.04629 138.25266 C 136.86923 138.89909 136.69077 139.55568 136.37811 140.13472 C 136.23938 140.39166 135.96507 140.77957 135.78125 141.00598 C 135.71006 141.09365 135.63496 141.17596 135.55646 141.24266 C 135.34459 141.42272 134.82079 141.29325 134.67796 141.04732 C 134.41855 140.60058 134.50039 139.84695 134.50639 139.19162 C 134.50909 138.8996 134.45318 138.42857 134.42268 138.13794 C 134.29663 136.93813 134.25422 135.72672 134.28832 134.52059 C 134.29662 134.22846 134.31811 133.75549 134.34981 133.46536 C 134.48268 132.24772 134.8423 131.04687 134.9136 129.82837 C 134.9307 129.5367 134.91349 129.06311 134.86399 128.77624 C 134.85389 128.71805 134.84327 128.65974 134.83247 128.60364 C 134.77707 128.31672 134.49095 128.14833 134.20874 128.22433 L 134.14156 128.24242 C 133.85935 128.31838 133.56686 128.6083 133.48889 128.88993 C 133.31277 129.52556 133.00741 130.63219 132.77678 131.48408 C 132.7004 131.76618 132.57793 132.22377 132.51013 132.50779 C 132.24253 133.62871 132.04999 134.7733 131.68899 135.86366 C 131.59715 136.14106 131.42531 136.58259 131.31796 136.8543 C 131.12889 137.33283 130.92181 137.81016 130.63221 138.22372 C 130.46477 138.46283 130.1348 138.80527 129.92373 139.00662 C 129.71894 139.20197 129.49417 139.38589 129.26485 139.47739 C 129.00026 139.58299 128.50509 139.39217 128.37499 139.13891 C 128.20722 138.8123 128.19311 138.34207 128.16621 137.90385 C 128.14832 137.61231 128.07362 137.14408 128.04942 136.85378 C 128.02362 136.54381 128.00936 136.20481 128.00136 135.93239 C 127.99269 135.64028 127.80127 135.43427 127.56728 135.47247 C 127.27885 135.51958 127.03364 135.79411 127.00504 136.08432 C 127.00304 136.10102 127.00239 136.11765 127.00039 136.13445 C 126.97014 136.42493 126.86651 136.88754 126.80971 137.17366 C 126.71404 137.65508 126.61492 138.15301 126.37769 138.54463 C 126.22707 138.79331 125.84832 139.09658 125.58394 139.22005 C 125.18662 139.40561 124.72032 139.49447 124.29875 139.43657 C 124.0107 139.39703 123.57585 139.16658 123.39699 138.93789 C 123.21115 138.70028 123.08556 138.39677 123.01976 138.08885 C 122.95876 137.80363 122.96379 137.32364 123.02389 137.03775 C 123.10208 136.66587 123.25908 136.29598 123.49621 136.02386 C 123.68684 135.80509 124.157 135.61448 124.42587 135.70708 C 124.60524 135.76887 124.78898 135.86984 124.97364 135.94634 C 125.2404 136.05696 125.72876 136.02925 126.002 135.92774 C 126.0166 135.92234 126.03111 135.91669 126.04541 135.91069 C 126.30552 135.80317 126.44099 135.36949 126.33015 135.20014 C 126.17193 134.9584 125.72657 134.73679 125.44131 134.67769 C 125.02934 134.59241 124.57906 134.62426 124.15612 134.72316 C 123.87174 134.78964 123.42407 134.95639 123.17582 135.1097 C 122.95576 135.24559 122.75241 135.41357 122.58309 135.60631 C 122.39071 135.82529 122.17391 136.25367 122.09061 136.53339 C 121.94285 137.02966 121.91264 137.57391 121.98364 138.09143 C 122.02333 138.38074 122.15128 138.84105 122.2844 139.10067 C 122.39446 139.31532 122.5343 139.51756 122.69936 139.6903 C 122.90065 139.90097 123.31374 140.14837 123.59026 140.24117 C 123.97597 140.37059 124.39936 140.41597 124.81086 140.39207 C 125.10236 140.37513 125.56816 140.26774 125.82837 140.1373 C 126.17667 139.96269 126.54467 139.70825 126.81642 139.5053 C 127.05067 139.33035 127.28361 139.41048 127.38952 139.68255 C 127.42324 139.7693 127.4623 139.8585 127.5063 139.943 C 127.63925 140.19801 128.06358 140.44995 128.35276 140.47475 C 128.88082 140.52011 129.4578 140.3167 129.98471 140.08201 C 130.25167 139.96311 130.67995 139.7573 130.92728 139.60193 C 131.36863 139.32471 131.77034 138.97314 132.10964 138.57616 C 132.29944 138.35409 132.56352 137.95825 132.67757 137.69042 C 132.80298 137.39582 132.91152 137.05943 132.99072 136.78867 C 133.07272 136.5081 133.10699 136.5132 133.08839 136.80469 C 133.04849 137.42862 133.00226 138.48524 133.07496 139.29859 C 133.10095 139.58954 133.19206 140.05542 133.26306 140.33884 C 133.36154 140.73225 133.49115 141.12283 133.69352 141.46125 C 133.84316 141.71149 134.17775 142.05611 134.41958 142.21935 C 134.61006 142.34792 134.81936 142.45187 135.03504 142.51287 C 135.31469 142.59197 135.80235 142.54775 136.06547 142.42398 C 136.32863 142.30018 136.57067 142.11 136.78274 141.89533 C 136.98797 141.6876 137.26972 141.30228 137.39614 141.03957 C 137.70388 140.40008 137.92661 139.51784 138.04726 138.96476 C 138.10954 138.67951 138.19809 138.67825 138.27619 138.9596 C 138.34092 139.19284 138.42932 139.47133 138.53716 139.71666 C 138.65436 139.98331 138.95632 140.35488 139.18001 140.54245 C 139.50301 140.81328 139.88196 141.02913 140.2802 141.1636 C 140.55673 141.25695 141.03226 141.31635 141.32045 141.27625 C 141.68017 141.22619 142.07746 141.11149 142.38085 141.01115 C 142.65843 140.91935 143.04997 140.99649 143.28932 141.1636 C 143.33468 141.1953 143.38178 141.22628 143.42988 141.25558 C 143.67645 141.40588 144.1677 141.43307 144.4324 141.31553 C 144.7924 141.15566 145.11346 140.85909 145.43183 140.5781 C 145.65089 140.38477 146.02915 140.09922 146.25916 139.91923 C 146.69574 139.57764 147.1187 139.21673 147.51025 138.82575 C 147.71703 138.61927 148.02969 138.25827 148.15362 137.9948 C 148.35133 137.57452 148.48978 137.07176 148.7479 136.78712 C 148.9386 136.57687 149.47584 136.56331 149.6879 136.75301 C 149.88424 136.92867 150.03773 137.20299 150.16074 137.48062 C 150.2791 137.74777 150.44035 138.19633 150.48785 138.48417 C 150.56985 138.98088 150.53655 139.50358 150.47545 140.01535 C 150.44082 140.30553 150.36906 140.77317 150.29096 141.05301 C 150.21771 141.31557 150.12485 141.59389 150.04395 141.82247 C 149.94645 142.09797 149.97176 142.32837 150.11009 142.34027 C 150.40128 142.36521 150.77194 142.19101 150.93175 141.94701 C 151.00364 141.83724 151.08111 141.7164 151.15551 141.59665 C 151.30965 141.34841 151.52522 140.92628 151.63661 140.65665 C 151.71783 140.46002 151.79836 140.25204 151.86606 140.07167 C 151.96878 139.79805 152.0678 139.81074 152.111 140.09958 C 152.14622 140.33517 152.19768 140.61701 152.26758 140.87266 C 152.34448 141.15393 152.56678 141.57566 152.73319 141.81575 C 152.95623 142.13755 153.22337 142.43757 153.53676 142.64929 C 153.7781 142.81232 154.24133 142.95857 154.53204 142.95057 C 154.7953 142.94315 155.06409 142.8816 155.32218 142.7945 C 155.59895 142.70107 156.03146 142.4987 156.26217 142.32063 C 156.51726 142.12373 156.74501 141.88398 156.97737 141.65142 C 157.18388 141.44474 157.53578 141.12663 157.71531 140.89798 C 157.84511 140.73266 157.97302 140.56348 158.11736 140.43703 C 158.3324 140.24896 158.85455 140.24838 159.06407 140.44116 C 159.21804 140.58282 159.35391 140.77505 159.50073 140.94914 C 159.68805 141.17122 160.10078 141.41354 160.36011 141.54807 C 161.01187 141.88618 161.70705 142.19262 162.41528 142.26172 C 162.70574 142.29007 163.18279 142.2491 163.46122 142.1625 C 163.951 142.01009 164.40806 141.71946 164.83012 141.40079 C 165.06334 141.22469 165.4302 140.92448 165.6523 140.73468 C 166.23689 140.23511 166.80596 139.67262 167.13128 139.00404 C 167.25896 138.74163 167.38542 138.2778 167.38242 137.98653 C 167.37925 137.69932 167.32083 137.40662 167.23153 137.12663 C 167.14279 136.84836 166.94419 136.41584 166.78969 136.16804 C 166.59155 135.85025 166.34732 135.55629 166.06622 135.31227 C 165.8458 135.12092 165.43726 134.87434 165.16809 134.76192 C 164.35253 134.42128 163.42165 134.35434 162.52277 134.23895 C 162.23292 134.20175 161.7655 134.12564 161.47581 134.09064 C 161.05204 134.03954 160.56737 133.99432 160.2087 133.96352 C 159.91737 133.93849 159.69437 133.68429 159.70847 133.39249 C 159.72607 133.02688 159.74782 132.52931 159.75912 132.09387 C 159.76652 131.80173 159.76465 131.32794 159.75395 131.03605 C 159.74475 130.78606 159.73206 130.52055 159.72036 130.29759 C 159.70501 130.00572 159.6325 129.74778 159.5612 129.72088 C 159.28784 129.61751 158.98395 129.75562 158.88475 130.03043 C 158.81079 130.23534 158.72417 130.47812 158.64497 130.70842 C 158.5499 130.98476 158.41003 131.43767 158.33233 131.71921 C 158.23795 132.06097 158.1388 132.44119 158.0631 132.73724 C 157.9907 133.01994 157.72003 133.14904 157.45745 133.02197 C 156.86643 132.73595 155.84327 132.23211 155.07516 131.80861 C 154.81925 131.66751 154.41359 131.42512 154.16979 131.26756 C 153.2357 130.66386 152.35812 129.97258 151.44283 129.339 C 151.20254 129.17266 150.8073 128.91278 150.56485 128.75143 C 149.4104 127.98315 148.26327 127.19729 147.04878 126.53193 C 146.79248 126.39152 146.37102 126.17517 146.1124 126.03946 C 145.03398 125.47344 143.9405 124.88244 142.76946 124.60388 C 142.48523 124.53623 142.01626 124.466 141.72559 124.438 C 139.69305 124.24237 137.61844 124.65273 135.59987 125.05657 C 135.31329 125.11391 134.84845 125.20543 134.56479 125.27413 C 133.06651 125.63705 131.63296 126.2499 130.1542 126.69626 C 129.87446 126.78071 129.4168 126.90432 129.13411 126.97842 C 127.73233 127.34606 126.31898 127.67094 124.89871 127.95923 C 124.6123 128.01736 124.14747 128.10866 123.86002 128.16026 C 122.75677 128.35829 121.24482 128.58755 120.45816 128.70441 C 120.16904 128.74735 119.93629 128.54448 119.93829 128.25224 L 119.94036 128.05122 A 0.5216285 0.5216285 0 0 0 119.54245 127.47709 A 0.5377769 0.5377769 0 0 0 118.9492 127.94321 L 118.9213 128.16284 C 118.88412 128.45272 118.61897 128.65821 118.32909 128.62121 C 117.51672 128.51759 115.92815 128.31314 114.77375 128.15405 C 114.48424 128.11415 114.0152 128.04733 113.7273 127.99903 C 112.24957 127.75108 110.78542 127.37402 109.29605 127.26109 C 109.00466 127.23899 108.53068 127.22508 108.23875 127.23008 C 106.94754 127.25372 105.66268 127.48737 104.37542 127.63626 C 104.08511 127.66986 103.61445 127.71358 103.32483 127.74478 C 102.36354 127.84834 101.40386 127.98007 100.43974 128.03727 C 100.14801 128.05457 99.674153 128.06734 99.381923 128.07034 C 98.368504 128.08084 97.353508 128.04165 96.343865 127.95355 C 96.052728 127.92816 95.583864 127.87936 95.298968 127.83366 C 94.55294 127.71406 93.816713 127.52254 93.070163 127.40836 C 92.781317 127.36416 92.309467 127.32208 92.018031 127.31018 C 91.452726 127.28728 90.776015 127.28809 90.31736 127.29209 C 90.025127 127.29494 89.824468 127.06626 89.865708 126.77739 C 89.916778 126.41968 89.982075 125.93449 90.024355 125.5077 C 90.053165 125.2169 90.071945 124.74353 90.064145 124.45196 C 90.059275 124.26898 90.051041 124.07982 90.042441 123.91245 C 90.027391 123.62052 89.77341 123.38921 89.481235 123.39621 z M 55.93858 127.30398 C 55.93858 127.30398 56.270945 128.125 56.392816 128.5499 C 56.615413 129.32599 56.895111 130.91926 56.895111 130.91926 C 56.895111 130.91926 55.564071 131.5409 54.941225 131.92695 C 54.272087 132.34169 53.037982 133.32532 53.037982 133.32532 C 53.037982 133.32532 53.91281 131.65684 54.282867 130.79162 C 54.651879 129.92884 54.788554 128.96414 55.252317 128.14837 C 55.431567 127.83306 55.93858 127.30398 55.93858 127.30398 z M 144.89387 134.09271 C 145.16942 134.09188 145.47277 134.17477 145.64422 134.37745 C 146.06868 134.87916 146.00937 135.67585 145.92999 136.32823 C 145.83089 137.14276 145.49459 137.95298 144.99929 138.60716 C 144.66863 139.04389 143.70325 139.61795 143.70325 139.61795 C 143.70325 139.61795 142.97385 137.93391 142.95652 137.0393 C 142.94142 136.26145 143.04133 135.38861 143.51876 134.77432 C 143.81108 134.3982 144.30319 134.14138 144.7776 134.09839 C 144.81537 134.09497 144.85451 134.09283 144.89387 134.09271 z M 159.50022 135.24096 C 159.50022 135.24096 161.4027 135.2476 162.33674 135.40322 C 163.24803 135.55504 164.31875 135.53231 165.00531 136.15047 C 165.67395 136.7525 166.19513 137.78079 166.00111 138.65936 C 165.76148 139.74441 164.62476 140.57163 163.58059 140.95172 C 162.83392 141.22353 161.92782 141.13061 161.20141 140.80858 C 160.7995 140.63041 160.46095 140.27629 160.25831 139.88616 C 159.53514 138.49382 159.50022 135.24096 159.50022 135.24096 z " /><path
       id="rect4"
       style="fill:#6186ff;stroke-width:0.189373"
       d="m 93.284185,130.97598 c 0.245263,-0.26264 0.648311,-0.64842 0.965512,-0.47955 0.508921,0.27092 0.623125,1.29615 0.226633,1.71472 -0.379534,0.40066 -1.362033,0.34257 -1.650715,-0.12779 -0.208985,-0.34051 0.185887,-0.81538 0.45857,-1.10738 z"
       sodipodi:nodetypes="aaaaa" /></g></svg>
